<svg xmlns="http://www.w3.org/2000/svg" version="1.1" viewBox="156 101.43 187 179.88">
<path d="M0 0 C6.65262205 -0.12754127 13.30492492 -0.21465991 19.95849609 -0.2746582 C22.21838157 -0.29968909 24.47818702 -0.33372438 26.73779297 -0.37719727 C29.99987619 -0.43835233 33.26088245 -0.46632502 36.5234375 -0.48828125 C38.02093033 -0.52699089 38.02093033 -0.52699089 39.54867554 -0.56648254 C48.54754911 -0.57002173 56.53201016 2.59938505 63 9 C65.13851708 11.78641526 67.07131686 14.69075154 69 17.625 C70.15159869 19.34382125 71.30529946 21.06123572 72.4609375 22.77734375 C73.04713867 23.64858887 73.63333984 24.51983398 74.23730469 25.41748047 C76.95450874 29.39844785 79.7841548 33.29425368 82.625 37.1875 C87.10218743 43.34005217 91.48110295 49.54662713 95.77270508 55.82983398 C101.17859743 63.74120365 106.6901801 71.57816495 112.19287109 79.42236328 C113.9911083 81.98731713 115.78700256 84.55389366 117.58203125 87.12109375 C123.52264101 95.61677814 129.47694978 104.10229431 135.46142578 112.56713867 C139.92214806 118.88046989 144.35348257 125.21418599 148.7824707 131.54980469 C153.05176197 137.65401293 157.34324931 143.74210614 161.65429688 149.81689453 C164.15874008 153.35530538 166.62808345 156.91284157 169.05078125 160.5078125 C169.54618408 161.24032227 170.04158691 161.97283203 170.55200195 162.72753906 C171.49006506 164.11873837 172.42256764 165.51370988 173.34838867 166.91308594 C177.26954264 172.72320278 180.32207178 175.02697575 187 177 C187 177.33 187 177.66 187 178 C180.77508084 178.24333427 174.55004802 178.45796176 168.32324219 178.64697266 C166.20872123 178.71508929 164.09443002 178.79080673 161.98046875 178.87451172 C158.92738344 178.99404289 155.87449405 179.08547391 152.8203125 179.171875 C151.42125168 179.23565338 151.42125168 179.23565338 149.993927 179.30072021 C142.1647044 179.47747662 135.90391335 177.44764725 129.27734375 173.29296875 C125.93907062 169.93179152 123.28113125 166.18217747 120.5625 162.3125 C120.01529297 161.54744141 119.46808594 160.78238281 118.90429688 159.99414062 C115.61970461 155.38016309 112.45204136 150.69770467 109.32446289 145.97631836 C107.76005112 143.64195646 106.11721194 141.37760673 104.4375 139.125 C100.7795515 134.13878503 97.28705368 129.05285801 93.8125 123.9375 C89.47143017 117.55160921 85.04696857 111.2409103 80.5 105 C75.57278884 98.23117172 70.79249193 91.37710757 66.08374023 84.45483398 C59.7923225 75.20848425 53.39701648 66.03506186 46.99755859 56.86328125 C45.67165017 54.96273688 44.3464484 53.06169931 43.02197266 51.16015625 C41.14115491 48.4598833 39.2583866 45.76098165 37.375 43.0625 C36.81949463 42.26465088 36.26398926 41.46680176 35.69165039 40.64477539 C34.13813332 38.42232714 32.56987229 36.2109118 31 34 C30.47567383 33.23929199 29.95134766 32.47858398 29.41113281 31.69482422 C28.89647461 30.96924316 28.38181641 30.24366211 27.8515625 29.49609375 C27.39861816 28.84697021 26.94567383 28.19784668 26.47900391 27.52905273 C24.72147049 25.71204518 23.4642133 25.38076091 21 25 C21 24.34 21 23.68 21 23 C21.66 23 22.32 23 23 23 C21.61076093 20.93278805 20.21397116 18.87139662 18.8125 16.8125 C18.23145508 15.9452832 18.23145508 15.9452832 17.63867188 15.06054688 C13.98030291 9.70904847 10.35454072 5.17272537 4.1875 2.6875 C3.39730469 2.36136719 2.60710937 2.03523438 1.79296875 1.69921875 C1.20128906 1.46847656 0.60960937 1.23773438 0 1 C0 0.67 0 0.34 0 0 Z " fill="#880192" transform="translate(156,102)"/>
<path d="M0 0 C1.25224365 0.01142029 1.25224365 0.01142029 2.52978516 0.02307129 C4.5772372 0.04284282 6.62458328 0.07310524 8.671875 0.10546875 C8.8282234 14.4086946 8.97602193 28.711989 9.1148386 43.01539612 C9.17948331 49.66184014 9.24673356 56.30823426 9.32006836 62.95458984 C9.65742109 93.69569671 9.7874054 124.37882072 8.671875 155.10546875 C7.681875 155.10546875 6.691875 155.10546875 5.671875 155.10546875 C4.02124023 153.12451172 4.02124023 153.12451172 2.23046875 150.34765625 C1.56934082 149.33630615 0.90821289 148.32495605 0.22705078 147.28295898 C-0.47178223 146.19313721 -1.17061523 145.10331543 -1.890625 143.98046875 C-3.34068401 141.75926414 -4.79249958 139.53920524 -6.24609375 137.3203125 C-6.94911621 136.24378418 -7.65213867 135.16725586 -8.37646484 134.05810547 C-10.73538965 130.4893243 -13.18388521 126.99966042 -15.703125 123.54296875 C-19.18911578 118.72531765 -22.57778034 113.85646262 -25.890625 108.91796875 C-26.32101074 108.28109131 -26.75139648 107.64421387 -27.19482422 106.98803711 C-30.69036141 101.74188595 -31.45587312 98.37703475 -31.48925781 92.11474609 C-31.49422272 91.40700043 -31.49918762 90.69925476 -31.50430298 89.97006226 C-31.5189128 87.62716701 -31.52572654 85.28433959 -31.53125 82.94140625 C-31.53700482 81.30815632 -31.54276251 79.6749064 -31.54852295 78.04165649 C-31.55903124 74.61354254 -31.56487424 71.18545201 -31.56835938 67.75732422 C-31.57382717 63.38288561 -31.59781891 59.00876093 -31.62633133 54.63442039 C-31.64504141 51.25761033 -31.65016786 47.88087438 -31.65169525 44.50401688 C-31.65470622 42.89260782 -31.66268168 41.28119958 -31.67588043 39.66984177 C-31.7991955 23.44994248 -31.7991955 23.44994248 -28.328125 16.10546875 C-28.04132874 15.47796722 -27.75453247 14.8504657 -27.45904541 14.20394897 C-25.2309167 9.83828992 -22.38067474 6.77041075 -18.328125 4.10546875 C-17.45994141 3.51378906 -17.45994141 3.51378906 -16.57421875 2.91015625 C-11.13460944 -0.13432176 -6.06492277 -0.1052813 0 0 Z " fill="#F7AE27" transform="translate(319.328125,101.89453125)"/>
<path d="M0 0 C3 1 3 1 5 3 C5.26941406 3.72574219 5.53882813 4.45148438 5.81640625 5.19921875 C7.34151239 8.80813327 9.58245692 11.71689272 11.9375 14.8125 C16.41460762 20.8019937 20.7317654 26.87397064 24.91894531 33.06958008 C27.17305253 36.39264118 29.46940111 39.65360781 31.9140625 42.83984375 C32.37997803 43.45657959 32.84589355 44.07331543 33.32592773 44.70874023 C34.20283701 45.86238617 35.09461753 47.00495256 36.00415039 48.13305664 C38.69724374 51.70642565 39.42919579 54.31836606 39.05395508 58.79492188 C38.93192198 61.1807042 38.93192198 61.1807042 39.48655701 64.22988892 C39.96135911 67.71626753 40.13920412 71.01254057 40.16113281 74.52685547 C40.17074036 75.77860565 40.1803479 77.03035583 40.19024658 78.32003784 C40.19509517 79.66908584 40.19937385 81.018136 40.203125 82.3671875 C40.20736607 83.39983419 40.20736607 83.39983419 40.21169281 84.45334244 C40.22661799 88.09471257 40.23589027 91.73604375 40.24023438 95.37744141 C40.24571773 99.1150576 40.26976178 102.85230931 40.29820633 106.58981133 C40.31693133 109.48622652 40.32204346 112.38255545 40.32357025 115.27902603 C40.32657371 116.65598676 40.3345231 118.03294683 40.34775543 119.40984726 C40.44274529 130.05085094 39.74855332 140.00272768 32 148 C24.42482755 154.07694056 17.7483278 156.33703943 8.125 156.125 C7.34125 156.11597656 6.5575 156.10695313 5.75 156.09765625 C3.83319945 156.07428063 1.91655809 156.03841653 0 156 C-0.15409305 136.84140862 -0.30212049 117.68277948 -0.4429636 98.524086 C-0.50850296 89.62801171 -0.57601329 80.73196059 -0.64819336 71.8359375 C-0.71111386 64.08051351 -0.77030594 56.32507146 -0.82505554 48.56958532 C-0.85416354 44.46464187 -0.88511498 40.35973129 -0.92053413 36.25483704 C-0.95384592 32.38733981 -0.98215387 28.51983753 -1.00670624 24.65227509 C-1.01656063 23.23657087 -1.02820723 21.82087775 -1.04183006 20.40520477 C-1.10721552 13.50880865 -1.09875109 6.81784481 0 0 Z " fill="#C202A3" transform="translate(173,125)"/>
<path d="M0 0 C3.36063361 3.20499534 6.06557951 6.33983369 8.5625 10.25 C11.81910003 15.24142434 15.17537111 20.14005676 18.625 25 C19.66154252 26.46217991 20.69799863 27.92442108 21.734375 29.38671875 C22.53391602 30.514729 22.53391602 30.514729 23.34960938 31.66552734 C26.20524974 35.70482218 29.03999319 39.75870891 31.875 43.8125 C32.45830078 44.64628174 33.04160156 45.48006348 33.64257812 46.33911133 C36.02584976 49.74626104 38.40841199 53.15390658 40.79101562 56.56152344 C46.8448852 65.21888774 52.90229521 73.87343363 59 82.5 C66.30043688 92.82809975 73.54358516 103.19619623 80.79101562 113.56152344 C87.01695882 122.46496242 93.2459608 131.36626461 99.5 140.25 C100.20213623 141.25003052 100.20213623 141.25003052 100.91845703 142.27026367 C101.81522376 143.54215585 102.71648102 144.81089573 103.62255859 146.07617188 C104.59911696 147.44009955 105.56449607 148.81206301 106.52197266 150.18945312 C107.0329248 150.90552734 107.54387695 151.62160156 108.0703125 152.359375 C108.52680176 153.00874023 108.98329102 153.65810547 109.45361328 154.32714844 C112.15225037 157.2464824 115.22845479 157.95957374 119 159 C119 159.33 119 159.66 119 160 C112.77508084 160.24333427 106.55004802 160.45796176 100.32324219 160.64697266 C98.20872123 160.71508929 96.09443002 160.79080673 93.98046875 160.87451172 C90.92738344 160.99404289 87.87449405 161.08547391 84.8203125 161.171875 C83.42125168 161.23565338 83.42125168 161.23565338 81.993927 161.30072021 C74.17109238 161.4773324 67.92691265 159.44227901 61.29296875 155.31640625 C57.85143095 151.83969089 55.11656011 147.93558797 52.3125 143.9375 C51.73177734 143.12216797 51.15105469 142.30683594 50.55273438 141.46679688 C43.8018286 131.96870169 43.8018286 131.96870169 43.140625 127.1171875 C42.99794189 126.1281543 42.85525879 125.13912109 42.70825195 124.12011719 C42.55702881 123.04922852 42.40580566 121.97833984 42.25 120.875 C39.43457879 102.36183672 34.90142485 84.45713293 29.4375 66.5625 C29.07374268 65.36012695 28.70998535 64.15775391 28.33520508 62.91894531 C26.39247828 56.71580689 24.16939279 50.9955184 21.14038086 45.24536133 C19.46873292 41.95395774 18.27075607 38.54428976 17.0625 35.0625 C14.90680742 29.05420151 12.35134552 23.55536086 9.1015625 18.0390625 C8 16 8 16 8 14 C7.34 14 6.68 14 6 14 C3 8.25 3 8.25 3 6 C2.34 6 1.68 6 1 6 C0.67 4.02 0.34 2.04 0 0 Z " fill="#F5BD2C" transform="translate(224,120)"/>
<path d="M0 0 C4.62 0 9.24 0 14 0 C14.15604201 14.30322967 14.30414692 28.6065196 14.4429636 42.90992737 C14.50760831 49.55637139 14.57485856 56.20276551 14.64819336 62.84912109 C14.98554609 93.59022796 15.1155304 124.27335197 14 155 C13.01 155 12.02 155 11 155 C9.34936523 153.01904297 9.34936523 153.01904297 7.55859375 150.2421875 C6.89746582 149.2308374 6.23633789 148.2194873 5.55517578 147.17749023 C4.85634277 146.08766846 4.15750977 144.99784668 3.4375 143.875 C1.98744099 141.65379539 0.53562542 139.43373649 -0.91796875 137.21484375 C-1.62099121 136.13831543 -2.32401367 135.06178711 -3.04833984 133.95263672 C-5.40726465 130.38385555 -7.85576021 126.89419167 -10.375 123.4375 C-13.86099078 118.6198489 -17.24965534 113.75099387 -20.5625 108.8125 C-20.99288574 108.17562256 -21.42327148 107.53874512 -21.86669922 106.88256836 C-25.3717389 101.62215573 -26.11886447 98.29981666 -26 92 C-25.67 92 -25.34 92 -25 92 C-25 93.98 -25 95.96 -25 98 C-22.43851664 96.71925832 -22.35746578 95.81173533 -21.3125 93.1875 C-17.00653379 83.33644061 -11.93731864 75.52647265 -4.625 67.6875 C-4.01293701 67.02999756 -3.40087402 66.37249512 -2.77026367 65.69506836 C0.51953547 62.26853681 3.668079 59.57355162 7.67602539 57.01855469 C10.40987834 54.90037843 11.78201183 53.69228436 12.82800293 50.37043762 C13.13642977 47.19615642 13.16881234 44.12984351 13.09765625 40.94140625 C13.10711777 39.79711655 13.11657928 38.65282684 13.12632751 37.47386169 C13.1468509 33.83541253 13.10555701 30.20069716 13.0625 26.5625 C13.06557566 24.08918425 13.0726923 21.61587001 13.08398438 19.14257812 C13.1027979 13.09406898 13.06619175 7.04815208 13 1 C8.71 1 4.42 1 0 1 C0 0.67 0 0.34 0 0 Z " fill="#9C0287" transform="translate(314,102)"/>
<path d="M0 0 C2 3 2 3 2 5 C2.61029053 5.10691162 3.22058105 5.21382324 3.84936523 5.32397461 C7.41656051 6.44527824 9.01065924 9.61134336 11.0625 12.5625 C11.54001709 13.23144287 12.01753418 13.90038574 12.50952148 14.58959961 C14.02074359 16.71669733 15.51336121 18.85565976 17 21 C17.70382813 22.01513672 17.70382813 22.01513672 18.421875 23.05078125 C20.26334545 25.7147062 22.10074368 28.38097464 23.91723633 31.06201172 C26.19183531 34.41374974 28.50903097 37.71160046 30.94921875 40.9453125 C31.419646 41.5755835 31.89007324 42.20585449 32.37475586 42.85522461 C33.26795557 44.04525902 34.17314634 45.22642078 35.09204102 46.39672852 C36.91858046 48.84506863 38.01008786 50.40940179 37.95703125 53.515625 C34.26160068 63.10866109 28.34336771 72.90673775 22 81 C21.34 81 20.68 81 20 81 C19.7525 81.61875 19.505 82.2375 19.25 82.875 C17.76259631 85.40358627 16.56321991 85.71839004 14 87 C13.31513275 88.32407669 12.65129797 89.65909241 12 91 C8.91728157 94.33266857 5.66910441 97.32254543 2 100 C1.34 100 0.68 100 0 100 C0 67 0 34 0 0 Z " fill="#F1881A" transform="translate(174,127)"/>
<path d="M0 0 C3.36063361 3.20499534 6.06557951 6.33983369 8.5625 10.25 C11.81910003 15.24142434 15.17537111 20.14005676 18.625 25 C19.66154252 26.46217991 20.69799863 27.92442108 21.734375 29.38671875 C22.53391602 30.514729 22.53391602 30.514729 23.34960938 31.66552734 C26.20524996 35.7048225 29.03994099 39.75874509 31.875 43.8125 C32.45540039 44.64193115 33.03580078 45.4713623 33.63378906 46.32592773 C36.66472923 50.65816825 39.69289335 54.99233251 42.71875 59.328125 C48.73484403 67.94359864 54.75691291 76.54662742 61 85 C60.67 85.66 60.34 86.32 60 87 C59.01 87 58.02 87 57 87 C56.34 85.02 55.68 83.04 55 81 C54.34 81 53.68 81 53 81 C51.375 79.8125 51.375 79.8125 50 78 C49.8125 75.3125 49.8125 75.3125 50 73 C49.01 72.67 48.02 72.34 47 72 C46.67 71.67 46.34 71.34 46 71 C44.17171786 74.50197699 44.17171786 74.50197699 44.75 78.25 C45.89602495 80.14296569 45.89602495 80.14296569 48 81 C47.64164062 81.92941406 47.28328125 82.85882813 46.9140625 83.81640625 C45.45078562 88.96884417 46.53836524 93.74115769 47.375 98.9375 C49.17307399 111.33561145 49.32667479 123.49589414 49 136 C49.66 136.33 50.32 136.66 51 137 C51.66666667 138.33333333 52.33333333 139.66666667 53 141 C53.515625 141.515625 54.03125 142.03125 54.5625 142.5625 C56 144 56 144 57 147 C57.99 147.99 57.99 147.99 59 149 C61 151 61 151 62 154 C58.52027191 152.84009064 57.99966134 151.99124901 55.93359375 149.0703125 C55.0818457 147.87728516 55.0818457 147.87728516 54.21289062 146.66015625 C53.62701172 145.82355469 53.04113281 144.98695313 52.4375 144.125 C51.84775391 143.29613281 51.25800781 142.46726562 50.65039062 141.61328125 C43.80164931 131.9673862 43.80164931 131.9673862 43.140625 127.1171875 C42.99794189 126.1281543 42.85525879 125.13912109 42.70825195 124.12011719 C42.55702881 123.04922852 42.40580566 121.97833984 42.25 120.875 C39.43457879 102.36183672 34.90142485 84.45713293 29.4375 66.5625 C29.07374268 65.36012695 28.70998535 64.15775391 28.33520508 62.91894531 C26.39247828 56.71580689 24.16939279 50.9955184 21.14038086 45.24536133 C19.46873292 41.95395774 18.27075607 38.54428976 17.0625 35.0625 C14.90680742 29.05420151 12.35134552 23.55536086 9.1015625 18.0390625 C8 16 8 16 8 14 C7.34 14 6.68 14 6 14 C3 8.25 3 8.25 3 6 C2.34 6 1.68 6 1 6 C0.67 4.02 0.34 2.04 0 0 Z " fill="#D7370D" transform="translate(224,120)"/>
<path d="M0 0 C0.99 0.66 1.98 1.32 3 2 C3.36076355 4.9359436 3.36076355 4.9359436 3.34057617 8.74462891 C3.34123329 9.78382225 3.34123329 9.78382225 3.34190369 10.8440094 C3.33981032 13.13847851 3.31645468 15.43222074 3.29296875 17.7265625 C3.28737471 19.31553752 3.28310371 20.90451771 3.28010559 22.49349976 C3.26864158 26.67922203 3.23916131 30.86463286 3.20599365 35.05023193 C3.17532611 39.31990343 3.16160737 43.58962516 3.14648438 47.859375 C3.11429284 56.23972639 3.06307803 64.61982447 3 73 C1.62437146 71.71034824 0.29233607 70.37310707 -1 69 C-1 68.34 -1 67.68 -1 67 C-1.66 67 -2.32 67 -3 67 C-6 62.61538462 -6 62.61538462 -6 60 C-6.75700195 59.91838623 -7.51400391 59.83677246 -8.29394531 59.75268555 C-11.63933706 58.82216924 -12.36758672 57.79238082 -14.296875 54.95703125 C-14.86277344 54.13009766 -15.42867188 53.30316406 -16.01171875 52.45117188 C-16.58535156 51.58041016 -17.15898437 50.70964844 -17.75 49.8125 C-18.33910156 48.96107422 -18.92820312 48.10964844 -19.53515625 47.23242188 C-22.46366996 42.8800446 -24.75263288 39.3979039 -25 34 C-24.01 34 -23.02 34 -22 34 C-21.61328125 33.20335937 -21.2265625 32.40671875 -20.828125 31.5859375 C-20.30734375 30.52632812 -19.7865625 29.46671875 -19.25 28.375 C-18.73953125 27.33085937 -18.2290625 26.28671875 -17.703125 25.2109375 C-14.3557679 18.90009452 -10.04560507 13.30794164 -5.75 7.625 C-5.19570313 6.88894531 -4.64140625 6.15289062 -4.0703125 5.39453125 C-2.71500455 3.59524311 -1.35820669 1.79710039 0 0 Z " fill="#A702BB" transform="translate(324,180)"/>
<path d="M0 0 C3 1 3 1 5 3 C5 4.32 5 5.64 5 7 C4.34 7 3.68 7 3 7 C2.67 6.34 2.34 5.68 2 5 C1.67 37.01 1.34 69.02 1 102 C8.91617448 97.04308209 8.91617448 97.04308209 13.875 90.60546875 C15.52602 88.24932562 17.71576283 86.71317788 20 85 C20.33 84.34 20.66 83.68 21 83 C21.66 83 22.32 83 23 83 C23.35771484 81.97712891 23.35771484 81.97712891 23.72265625 80.93359375 C25.26673996 77.38739537 27.3008764 74.26916127 29.4375 71.0625 C32.25833684 66.81513883 34.80625306 62.62027088 37 58 C40.3454612 63.0181918 40.12433626 68.62980088 40.16113281 74.52685547 C40.17074036 75.77860565 40.1803479 77.03035583 40.19024658 78.32003784 C40.19509517 79.66908584 40.19937385 81.018136 40.203125 82.3671875 C40.20736607 83.39983419 40.20736607 83.39983419 40.21169281 84.45334244 C40.22661799 88.09471257 40.23589027 91.73604375 40.24023438 95.37744141 C40.24571773 99.1150576 40.26976178 102.85230931 40.29820633 106.58981133 C40.31693133 109.48622652 40.32204346 112.38255545 40.32357025 115.27902603 C40.32657371 116.65598676 40.3345231 118.03294683 40.34775543 119.40984726 C40.5038459 136.89549481 40.5038459 136.89549481 34.8125 143.5625 C34.214375 144.036875 33.61625 144.51125 33 145 C33.62651938 138.35889462 33.62651938 138.35889462 35.51594543 136.54325867 C37.46431907 134.51715763 37.39258589 133.39750503 37.43237305 130.62036133 C37.45216721 129.73967484 37.47196136 128.85898834 37.49235535 127.95161438 C37.50194023 126.53117073 37.50194023 126.53117073 37.51171875 125.08203125 C37.52966995 124.10965012 37.54762115 123.13726898 37.56611633 122.13542175 C37.62032467 119.02782536 37.65414898 115.92038348 37.6875 112.8125 C37.72066376 110.70635866 37.75515253 108.60023773 37.79101562 106.49414062 C37.87605731 101.32953839 37.94281841 96.16498281 38 91 C36.02 91.99 36.02 91.99 34 93 C35 90 35 90 37 88 C34.67108098 88.04452419 34.67108098 88.04452419 32 89 C30.73668288 90.42528085 29.47873194 91.85931995 28.3203125 93.37109375 C25.37092974 97.00982929 21.82604455 100.44314871 17 101 C16.67 99.68 16.34 98.36 16 97 C16 97.66 16 98.32 16 99 C15.64592224 101.7330377 15.26625054 102.76014499 13.1875 104.6328125 C12.465625 105.12523437 11.74375 105.61765625 11 106.125 C7.97716106 108.10073376 7.97716106 108.10073376 6 111 C4.515 111.495 4.515 111.495 3 112 C1.79453315 120.82320697 1.66306516 129.67339123 1.4375 138.5625 C1.39422355 140.15951455 1.35060663 141.75651991 1.30664062 143.35351562 C1.19986873 147.23558041 1.10009132 151.11773445 1 155 C7.27 154.67 13.54 154.34 20 154 C16.95318939 156.03120707 16.39881676 156.24659875 12.98828125 156.1953125 C12.23095703 156.18886719 11.47363281 156.18242187 10.69335938 156.17578125 C9.51483398 156.15064453 9.51483398 156.15064453 8.3125 156.125 C7.51521484 156.11597656 6.71792969 156.10695313 5.89648438 156.09765625 C3.930861 156.07411585 1.96539225 156.03824547 0 156 C-0.15409305 136.84140862 -0.30212049 117.68277948 -0.4429636 98.524086 C-0.50850296 89.62801171 -0.57601329 80.73196059 -0.64819336 71.8359375 C-0.71111386 64.08051351 -0.77030594 56.32507146 -0.82505554 48.56958532 C-0.85416354 44.46464187 -0.88511498 40.35973129 -0.92053413 36.25483704 C-0.95384592 32.38733981 -0.98215387 28.51983753 -1.00670624 24.65227509 C-1.01656063 23.23657087 -1.02820723 21.82087775 -1.04183006 20.40520477 C-1.10721552 13.50880865 -1.09875109 6.81784481 0 0 Z " fill="#510286" transform="translate(173,125)"/>
<path d="M0 0 C2 0 2 0 3.625 1.1875 C5.42149467 3.55560662 5.23521845 5.09897251 5 8 C5.99 8.33 6.98 8.66 8 9 C8 9.66 8 10.32 8 11 C8.66 11 9.32 11 10 11 C11.71230248 12.61974559 13.37163262 14.2958946 15 16 C15.825 16.78375 16.65 17.5675 17.5 18.375 C20.34472841 21.36196483 23.11964399 24.29831261 25 28 C24.8125 30.9375 24.8125 30.9375 24 33 C22.515 32.505 22.515 32.505 21 32 C20.87625 31.05125 20.7525 30.1025 20.625 29.125 C20.28312823 25.91332809 20.28312823 25.91332809 18 24 C16.9502762 29.38205848 16.63456836 34.72297956 16.375 40.1875 C16.30744507 41.58826782 16.30744507 41.58826782 16.23852539 43.01733398 C15.99940611 48.72487768 16.00953475 54.26337547 16.74609375 59.94140625 C17 62 17 62 17 66 C17.66 66 18.32 66 19 66 C19 67.65 19 69.3 19 71 C17.515 71.495 17.515 71.495 16 72 C15.67 72.99 15.34 73.98 15 75 C14.01 75 13.02 75 12 75 C11.34 74.34 10.68 73.68 10 73 C9.01 72.34 8.02 71.68 7 71 C7 70.01 7 69.02 7 68 C6.34 67.67 5.68 67.34 5 67 C3.41051867 65.41051867 3.83510498 63.73622033 3.7890625 61.53125 C3.76231445 60.57911621 3.73556641 59.62698242 3.70800781 58.64599609 C3.68061523 57.60781738 3.65322266 56.56963867 3.625 55.5 C3.31219908 45.28751455 2.33498868 35.29592879 0.75244141 25.20117188 C-0.05296016 19.52536153 -0.42174858 15.96322937 3 11 C1.68 11 0.36 11 -1 11 C-2.0257259 6.58937864 -2.03684712 4.07369424 0 0 Z " fill="#F07912" transform="translate(269,190)"/>
<path d="M0 0 C2 3 2 3 2 5 C2.60593994 5.10038574 3.21187988 5.20077148 3.83618164 5.30419922 C6.42130143 6.13547434 7.07502913 6.94054476 8.62109375 9.1328125 C9.08193359 9.77476562 9.54277344 10.41671875 10.01757812 11.078125 C10.72043945 12.09132812 10.72043945 12.09132812 11.4375 13.125 C11.90220703 13.77726563 12.36691406 14.42953125 12.84570312 15.1015625 C13.77736752 16.4113501 14.70214547 17.72606414 15.61987305 19.0456543 C16.54647324 20.35777787 17.49646321 21.65366693 18.46801758 22.93286133 C22.01957838 27.64106309 22.01957838 27.64106309 21.8125 31.4375 C21.544375 32.283125 21.27625 33.12875 21 34 C21.66 34 22.32 34 23 34 C22.67 35.98 22.34 37.96 22 40 C21.319375 40.04125 20.63875 40.0825 19.9375 40.125 C16.26118337 41.22007304 14.30670183 43.12561358 11.55078125 45.72265625 C10 47 10 47 8 47 C7.67 47.99 7.34 48.98 7 50 C6.34 50 5.68 50 5 50 C5 50.66 5 51.32 5 52 C3.35 52.99 1.7 53.98 0 55 C0 36.85 0 18.7 0 0 Z " fill="#F1C237" transform="translate(174,127)"/>
<path d="M0 0 C0.33 0.66 0.66 1.32 1 2 C0.36868164 3.15564453 -0.26263672 4.31128906 -0.91308594 5.50195312 C-3.46100566 10.37520938 -3.51800557 14.55513789 -3.390625 19.96875 C-3.38496521 20.88966431 -3.37930542 21.81057861 -3.37347412 22.75939941 C-3.35125236 25.67348307 -3.30108383 28.58629397 -3.25 31.5 C-3.2299166 33.48696129 -3.21166906 35.47394204 -3.1953125 37.4609375 C-3.1514343 42.30777499 -3.08250689 47.15367242 -3 52 C-2.34 52 -1.68 52 -1 52 C-0.73058594 51.26910156 -0.46117187 50.53820312 -0.18359375 49.78515625 C0.9667008 47.07835753 2.28139428 44.86055545 3.9375 42.4375 C4.44152344 41.69371094 4.94554687 40.94992188 5.46484375 40.18359375 C6.93677271 38.08993399 8.45197289 36.03785061 10 34 C9.835 34.9075 9.67 35.815 9.5 36.75 C8.89862854 40.11087503 8.89862854 40.11087503 9 44 C7.515 44.495 7.515 44.495 6 45 C4.08794716 47.43858328 4.08794716 47.43858328 2.3125 50.375 C1.68988281 51.35210937 1.06726563 52.32921875 0.42578125 53.3359375 C-1.23593131 55.93723564 -1.23593131 55.93723564 -1 59 C-0.67 59.66 -0.34 60.32 0 61 C3.78034623 57.52263974 3.78034623 57.52263974 6 53 C6.66 53 7.32 53 8 53 C8.33 52.01 8.66 51.02 9 50 C10.32467746 49.3162955 11.65863633 48.65035814 13 48 C13.66 47.01 14.32 46.02 15 45 C15.99 45 16.98 45 18 45 C18.33 44.01 18.66 43.02 19 42 C21.33165882 40.88080376 23.59377688 39.92183401 26 39 C27.31485622 38.44302996 28.62749683 37.88079058 29.9375 37.3125 C30.948125 36.879375 31.95875 36.44625 33 36 C33.31640625 38.72265625 33.31640625 38.72265625 33 42 C30.83984375 44.30859375 30.83984375 44.30859375 27.9375 46.4375 C15.82142116 55.73372417 4.39487823 67.86551966 -0.6875 82.5625 C-1.120625 83.696875 -1.55375 84.83125 -2 86 C-3.485 86.495 -3.485 86.495 -5 87 C-6.19325588 79.45247718 -6.18217854 71.94316806 -6.203125 64.31640625 C-6.20595238 63.61785963 -6.20877975 62.91931301 -6.21169281 62.19959831 C-6.2266037 58.50635282 -6.23588559 54.81314561 -6.24023438 51.11987305 C-6.24572281 47.32960104 -6.26978172 43.53968753 -6.29820633 39.74952793 C-6.3169262 36.81108094 -6.32204314 33.87271901 -6.32357025 30.93421745 C-6.32657368 29.5377194 -6.33452296 28.141222 -6.34775543 26.7447834 C-6.43623947 16.6941863 -5.74098749 8.47479105 0 0 Z " fill="#E23C06" transform="translate(294,113)"/>
<path d="M0 0 C6.74435205 -0.05074705 13.48865477 -0.0857534 20.2331543 -0.10986328 C22.52711833 -0.11991528 24.82106957 -0.1335589 27.11499023 -0.15087891 C30.41393188 -0.17516209 33.71270397 -0.18649123 37.01171875 -0.1953125 C38.03585373 -0.20563507 39.05998871 -0.21595764 40.11515808 -0.22659302 C41.07577652 -0.22674408 42.03639496 -0.22689514 43.02612305 -0.22705078 C43.86773483 -0.231492 44.70934662 -0.23593323 45.57646179 -0.24050903 C48.37734842 0.03744761 50.48557942 0.74428848 53 2 C53.8125 4.125 53.8125 4.125 54 6 C54.99 6 55.98 6 57 6 C57.495 7.485 57.495 7.485 58 9 C58.99 9.66 59.98 10.32 61 11 C60.37236731 17.52737995 60.37236731 17.52737995 58.375 20.0625 C56.69085512 22.00490503 56.69085512 22.00490503 57.1875 24.9375 C57.93363182 27.74984301 58.82658771 30.34026549 60 33 C56.34465968 30.1968879 53.11281047 27.66075396 51 23.5 C49.17516927 19.91381091 46.73741463 17.80899478 43.5859375 15.359375 C42 14 42 14 40 11 C37.94074861 10.27617533 37.94074861 10.27617533 36 10 C36 9.34 36 8.68 36 8 C31.13371581 5.37969313 26.5814298 3.6716806 21 4 C20.34 5.65 19.68 7.3 19 9 C19.99 9.33 20.98 9.66 22 10 C21.67 10.99 21.34 11.98 21 13 C20.34 13 19.68 13 19 13 C19 12.34 19 11.68 19 11 C18.113125 10.773125 17.22625 10.54625 16.3125 10.3125 C13 9 13 9 10.625 6.5625 C7.26691128 3.28436577 4.43589102 2.42850728 0 1 C0 0.67 0 0.34 0 0 Z " fill="#BA028C" transform="translate(156,102)"/>
<path d="M0 0 C3.26967839 2.63653257 4.09239888 5.64152812 5.375 9.5625 C6.76713525 13.80993306 8.28991959 17.63405199 10.37890625 21.5859375 C13.5678235 27.829321 15.5446048 34.36594126 17.5625 41.0625 C17.95921923 42.36247028 18.35594783 43.6624377 18.75268555 44.96240234 C21.35682527 53.55976081 23.73147813 62.15665432 25.56738281 70.95166016 C26.05228688 73.24756597 26.5684892 75.53543564 27.0859375 77.82421875 C29.02642638 86.53726075 30.64267904 95.04910997 31 104 C26.99963304 100.25010324 23.96971118 96.30475161 20.9375 91.75 C19.9645322 90.31182938 18.9905399 88.87435143 18.015625 87.4375 C17.26829102 86.33341797 17.26829102 86.33341797 16.50585938 85.20703125 C14.10762738 81.69211277 11.64889785 78.22084524 9.1875 74.75 C8.18601993 73.33476135 7.18472172 71.91939399 6.18359375 70.50390625 C5.67038574 69.7783252 5.15717773 69.05274414 4.62841797 68.30517578 C-3.38458288 56.96203425 -11.3938834 45.62176823 -19 34 C-18.01 33.505 -18.01 33.505 -17 33 C-16.7525 33.804375 -16.505 34.60875 -16.25 35.4375 C-15.8375 36.283125 -15.425 37.12875 -15 38 C-12.97536745 38.65213292 -12.97536745 38.65213292 -11 39 C-10.67 39.99 -10.34 40.98 -10 42 C-9.34 42 -8.68 42 -8 42 C-7.79375 42.804375 -7.5875 43.60875 -7.375 44.4375 C-5.85923318 48.36471404 -3.84403171 51.42225482 -1.4375 54.8515625 C0 57 0 57 0.9375 59.0234375 C2.26230521 61.48796483 3.99017785 63.06089382 6 65 C7.27730319 66.49797549 8.52787596 68.01917669 9.75 69.5625 C10.36359375 70.32691406 10.9771875 71.09132813 11.609375 71.87890625 C13 74 13 74 13 77 C13.99 77.33 14.98 77.66 16 78 C16 78.66 16 79.32 16 80 C18.99405579 79.53146378 18.99405579 79.53146378 22 78 C23.46022435 74.47548841 23.46022435 74.47548841 24 71 C22.68 71 21.36 71 20 71 C20.17402344 70.30519531 20.34804688 69.61039062 20.52734375 68.89453125 C21.05332633 65.67343131 20.88327655 62.93090738 20.5625 59.6875 C20.40974609 58.08455078 20.40974609 58.08455078 20.25390625 56.44921875 C20.17011719 55.64097656 20.08632813 54.83273438 20 54 C19.34 54 18.68 54 18 54 C17.896875 52.88625 17.79375 51.7725 17.6875 50.625 C17.460625 49.42875 17.23375 48.2325 17 47 C16.01 46.34 15.02 45.68 14 45 C13.31773983 42.32052525 12.79601983 39.78238378 12.375 37.0625 C11.47964837 31.46480476 11.47964837 31.46480476 10 26 C9.34 26 8.68 26 8 26 C7.67 27.32 7.34 28.64 7 30 C5.68 30.33 4.36 30.66 3 31 C3.52268466 28.23723823 4.10869587 25.6739124 5 23 C4.34 23 3.68 23 3 23 C3 22.01 3 21.02 3 20 C4.32 20 5.64 20 7 20 C6.505 19.0925 6.01 18.185 5.5 17.25 C4 14 4 14 4 10 C3.34 10 2.68 10 2 10 C0.68373308 6.38026598 0 3.90432869 0 0 Z " fill="#4C073C" transform="translate(237,146)"/>
<path d="M0 0 C2.475 0.99 2.475 0.99 5 2 C5.88514207 6.60273874 6.12532642 8.89103558 4 13 C4.92548775 15.69933926 5.42373537 16.71186768 8 18 C7.64164062 18.92941406 7.28328125 19.85882813 6.9140625 20.81640625 C5.45078562 25.96884417 6.53836524 30.74115769 7.375 35.9375 C9.17307399 48.33561145 9.32667479 60.49589414 9 73 C9.66 73.33 10.32 73.66 11 74 C11.66666667 75.33333333 12.33333333 76.66666667 13 78 C13.515625 78.515625 14.03125 79.03125 14.5625 79.5625 C16 81 16 81 17 84 C17.66 84.66 18.32 85.32 19 86 C21 88 21 88 22 91 C18.52027191 89.84009064 17.99966134 88.99124901 15.93359375 86.0703125 C15.0818457 84.87728516 15.0818457 84.87728516 14.21289062 83.66015625 C13.62701172 82.82355469 13.04113281 81.98695313 12.4375 81.125 C11.84775391 80.29613281 11.25800781 79.46726562 10.65039062 78.61328125 C3.80204099 68.96793785 3.80204099 68.96793785 3.03515625 63.73046875 C2.87644043 62.68358887 2.71772461 61.63670898 2.55419922 60.55810547 C2.31080811 58.88965576 2.31080811 58.88965576 2.0625 57.1875 C1.00117908 50.2041867 -0.0595769 43.26445088 -1.625 36.375 C-5.88303001 16.97464979 -5.88303001 16.97464979 -4.0078125 12.78125 C-2.625 11.0625 -2.625 11.0625 -1.18359375 9.5625 C1.02776628 6.64321283 0.30735303 3.5038246 0 0 Z " fill="#E04108" transform="translate(264,183)"/>
<path d="M0 0 C6.7642526 2.31917232 11.72921714 6.64933601 15 13 C15.65563553 15.73261231 15.85128365 18.17438936 16 21 C16.66 21 17.32 21 18 21 C20.04169485 23.90548882 21 25.40142046 21 29 C21.66 29 22.32 29 23 29 C29.31837774 40.58757837 29.31837774 40.58757837 29 46 C26.25 48.75 26.25 48.75 23 51 C21.98319689 51.98290968 20.97261781 52.97334787 20 54 C17.68165264 50.80227951 15.86495857 47.92271164 14.5625 44.1875 C12.59844513 38.60321425 9.58484079 33.6217313 6.53125 28.5703125 C6.0671875 27.78398437 5.603125 26.99765625 5.125 26.1875 C4.69445312 25.47980469 4.26390625 24.77210938 3.8203125 24.04296875 C2.81149803 21.53054033 3.05194652 20.49941372 4 18 C4.515625 17.01 5.03125 16.02 5.5625 15 C7.28808012 11.95322612 7.28808012 11.95322612 7 8 C6.01 7.34 5.02 6.68 4 6 C4 5.01 4 4.02 4 3 C3.01 3 2.02 3 1 3 C0.67 2.01 0.34 1.02 0 0 Z " fill="#8B0183" transform="translate(209,105)"/>
<path d="M0 0 C0.66 0 1.32 0 2 0 C3.02571801 8.7918687 -0.23941177 13.78756572 -5 21 C-5.57105469 21.91265625 -6.14210937 22.8253125 -6.73046875 23.765625 C-9.6340903 28.32538625 -9.6340903 28.32538625 -11 30 C-11.66 30 -12.32 30 -13 30 C-13.2475 30.61875 -13.495 31.2375 -13.75 31.875 C-15.23740369 34.40358627 -16.43678009 34.71839004 -19 36 C-19.68486725 37.32407669 -20.34870203 38.65909241 -21 40 C-24.08271843 43.33266857 -27.33089559 46.32254543 -31 49 C-31.66 49 -32.32 49 -33 49 C-33.10823773 46.75106046 -33.18569645 44.50062425 -33.25 42.25 C-33.29640625 40.99703125 -33.3428125 39.7440625 -33.390625 38.453125 C-33 35 -33 35 -31.109375 32.546875 C-29 31 -29 31 -27 31 C-27 30.34 -27 29.68 -27 29 C-25.63875 28.1028125 -25.63875 28.1028125 -24.25 27.1875 C-21.03747205 25.02522157 -19.29936494 23.06581991 -17 20 C-16.29875 19.319375 -15.5975 18.63875 -14.875 17.9375 C-12.92336194 16.13774868 -12.92336194 16.13774868 -12.0625 13.9375 C-11 12 -11 12 -8.75 10.8125 C-5.15334623 8.4419782 -3.53600897 5.50943965 -1.33203125 1.86328125 C-0.89246094 1.24839844 -0.45289063 0.63351563 0 0 Z " fill="#DF3E0A" transform="translate(207,178)"/>
<path d="M0 0 C4.62 0 9.24 0 14 0 C14.15604201 14.30322967 14.30414692 28.6065196 14.4429636 42.90992737 C14.50760831 49.55637139 14.57485856 56.20276551 14.64819336 62.84912109 C14.98554609 93.59022796 15.1155304 124.27335197 14 155 C13.01 155 12.02 155 11 155 C9.74145508 153.65478516 9.74145508 153.65478516 8.51953125 151.7890625 C8.07802734 151.12132812 7.63652344 150.45359375 7.18164062 149.765625 C6.72982422 149.05921875 6.27800781 148.3528125 5.8125 147.625 C5.34908203 146.92632812 4.88566406 146.22765625 4.40820312 145.5078125 C1 140.28758975 1 140.28758975 1 138 C1.99 138 2.98 138 4 138 C7 142.22222222 7 142.22222222 7 145 C7.66 145 8.32 145 9 145 C10.625 147.5 10.625 147.5 12 150 C12.04627253 139.47347182 12.08184327 128.9469677 12.10362434 118.42035866 C12.1140764 113.53280682 12.12826144 108.64532439 12.15087891 103.7578125 C12.17255671 99.04403371 12.1845579 94.33032182 12.18975449 89.61649704 C12.19345937 87.81509726 12.20069374 86.01370128 12.21146011 84.21232986 C12.22590787 81.69567099 12.22798078 79.17929111 12.22705078 76.66259766 C12.23424133 75.91237839 12.24143188 75.16215912 12.24884033 74.38920593 C12.36766069 70.23937855 12.36766069 70.23937855 10 67 C8.515 67.99 8.515 67.99 7 69 C4.18265322 69.97994671 1.39445972 70.90138507 -1.5 71.625 C-4.81687351 73.44928043 -6.35505945 75.89994237 -8.515625 78.95703125 C-10.46414783 81.63881398 -12.52329695 83.79848618 -15 86 C-15.66 86 -16.32 86 -17 86 C-13.94865693 76.23570216 -3.99094202 64.97196932 4.45523071 59.37219238 C9.83330392 55.76930782 9.83330392 55.76930782 12.92028809 50.27856445 C13.2501589 47.09537016 13.28210331 44.04275396 13.1953125 40.84375 C13.20335907 39.70087524 13.21140564 38.55800049 13.21969604 37.38049316 C13.23462429 33.75190518 13.18084685 30.12811979 13.125 26.5 C13.12305712 24.03124939 13.1256131 21.56249088 13.1328125 19.09375 C13.14062137 13.06116417 13.08684061 7.03193576 13 1 C8.71 1 4.42 1 0 1 C0 0.67 0 0.34 0 0 Z " fill="#6A212F" transform="translate(314,102)"/>
<path d="M0 0 C3 1 3 1 5 3 C5 4.32 5 5.64 5 7 C4.34 7 3.68 7 3 7 C2.67 6.34 2.34 5.68 2 5 C1.67 37.01 1.34 69.02 1 102 C4.63 99.69 8.26 97.38 12 95 C11.67 97.31 11.34 99.62 11 102 C11.66 102 12.32 102 13 102 C13.33 101.01 13.66 100.02 14 99 C14.66 99 15.32 99 16 99 C15.62698541 101.69269909 15.2398855 102.78389625 13.1875 104.6328125 C12.465625 105.12523437 11.74375 105.61765625 11 106.125 C7.97716106 108.10073376 7.97716106 108.10073376 6 111 C4.515 111.495 4.515 111.495 3 112 C1.79453315 120.82320697 1.66306516 129.67339123 1.4375 138.5625 C1.39422355 140.15951455 1.35060663 141.75651991 1.30664062 143.35351562 C1.19986873 147.23558041 1.10009132 151.11773445 1 155 C7.27 154.67 13.54 154.34 20 154 C16.95318939 156.03120707 16.39881676 156.24659875 12.98828125 156.1953125 C12.23095703 156.18886719 11.47363281 156.18242187 10.69335938 156.17578125 C9.51483398 156.15064453 9.51483398 156.15064453 8.3125 156.125 C7.51521484 156.11597656 6.71792969 156.10695313 5.89648438 156.09765625 C3.930861 156.07411585 1.96539225 156.03824547 0 156 C-0.15409305 136.84140862 -0.30212049 117.68277948 -0.4429636 98.524086 C-0.50850296 89.62801171 -0.57601329 80.73196059 -0.64819336 71.8359375 C-0.71111386 64.08051351 -0.77030594 56.32507146 -0.82505554 48.56958532 C-0.85416354 44.46464187 -0.88511498 40.35973129 -0.92053413 36.25483704 C-0.95384592 32.38733981 -0.98215387 28.51983753 -1.00670624 24.65227509 C-1.01656063 23.23657087 -1.02820723 21.82087775 -1.04183006 20.40520477 C-1.10721552 13.50880865 -1.09875109 6.81784481 0 0 Z " fill="#762565" transform="translate(173,125)"/>
<path d="M0 0 C1.03366148 3.74702285 1.25733598 6.22799206 0 10 C-0.99 10.33 -1.98 10.66 -3 11 C-4.91205284 13.43858328 -4.91205284 13.43858328 -6.6875 16.375 C-7.31011719 17.35210937 -7.93273437 18.32921875 -8.57421875 19.3359375 C-10.23593131 21.93723564 -10.23593131 21.93723564 -10 25 C-9.67 25.66 -9.34 26.32 -9 27 C-5.21965377 23.52263974 -5.21965377 23.52263974 -3 19 C-2.34 19 -1.68 19 -1 19 C-0.67 18.01 -0.34 17.02 0 16 C1.32467746 15.3162955 2.65863633 14.65035814 4 14 C4.66 13.01 5.32 12.02 6 11 C6.99 11 7.98 11 9 11 C9.33 10.01 9.66 9.02 10 8 C12.33165882 6.88080376 14.59377688 5.92183401 17 5 C18.31485622 4.44302996 19.62749683 3.88079058 20.9375 3.3125 C21.948125 2.879375 22.95875 2.44625 24 2 C24.32421875 4.69921875 24.32421875 4.69921875 24 8 C21.76953125 10.51953125 21.76953125 10.51953125 18.8125 12.8125 C17.84957031 13.58207031 16.88664062 14.35164062 15.89453125 15.14453125 C13.06499149 16.95833879 11.28048338 17.57617916 8 18 C5.99594773 18.65438441 3.99571323 19.32060826 2 20 C1.2575 20.12375 0.515 20.2475 -0.25 20.375 C-2.13716246 20.84319044 -2.13716246 20.84319044 -3 22.625 C-3.33 23.40875 -3.66 24.1925 -4 25 C-6.56036145 30.03243458 -7.94733053 32.25234999 -13 35 C-13.02691685 32.54159395 -13.04679802 30.08348118 -13.0625 27.625 C-13.07087891 26.92632812 -13.07925781 26.22765625 -13.08789062 25.5078125 C-13.11328125 20.2265625 -13.11328125 20.2265625 -12 18 C-11.34 18 -10.68 18 -10 18 C-9.5978125 16.90365234 -9.5978125 16.90365234 -9.1875 15.78515625 C-8.02585603 13.0606426 -6.6875054 10.86328902 -5 8.4375 C-3.09937057 5.69584204 -1.42409849 3.01936265 0 0 Z " fill="#E65509" transform="translate(303,147)"/>
<path d="M0 0 C0.66 0 1.32 0 2 0 C2.2475 0.804375 2.495 1.60875 2.75 2.4375 C3.1625 3.283125 3.575 4.12875 4 5 C6.02463255 5.65213292 6.02463255 5.65213292 8 6 C8.33 6.99 8.66 7.98 9 9 C9.66 9 10.32 9 11 9 C11.20625 9.804375 11.4125 10.60875 11.625 11.4375 C13.14076682 15.36471404 15.15596829 18.42225482 17.5625 21.8515625 C19 24 19 24 19.9375 26.0234375 C21.26230521 28.48796483 22.99017785 30.06089382 25 32 C26.27730319 33.49797549 27.52787596 35.01917669 28.75 36.5625 C29.36359375 37.32691406 29.9771875 38.09132812 30.609375 38.87890625 C32 41 32 41 32 44 C32.99 44.33 33.98 44.66 35 45 C35 45.66 35 46.32 35 47 C39.41522109 45.73025028 39.41522109 45.73025028 43 43 C47.31545118 49.47317677 47.24392462 57.43833683 47 65 C46.67 64.01 46.34 63.02 46 62 C45.26652344 61.76023438 44.53304687 61.52046875 43.77734375 61.2734375 C39.68169944 59.39554714 38.01070629 56.30890054 35.5625 52.625 C34.49888026 51.07148972 33.43507047 49.51810956 32.37109375 47.96484375 C31.81921387 47.14999512 31.26733398 46.33514648 30.69873047 45.49560547 C28.45339795 42.19698675 26.16197782 38.93190574 23.86767578 35.66723633 C22.11412841 33.17203029 20.36713413 30.67233843 18.62109375 28.171875 C16.10342638 24.57027903 13.57301887 20.97801701 11.03515625 17.390625 C10.06908447 16.02127808 10.06908447 16.02127808 9.08349609 14.62426758 C7.843291 12.86680466 6.60023895 11.11134647 5.35400391 9.3581543 C4.7976123 8.56836182 4.2412207 7.77856934 3.66796875 6.96484375 C3.17578857 6.2699585 2.6836084 5.57507324 2.17651367 4.85913086 C1 3 1 3 0 0 Z " fill="#260168" transform="translate(218,179)"/>
<path d="M0 0 C3.58329827 5.3749474 3.14498041 11.61506414 3.09765625 17.90234375 C3.0962413 18.6249086 3.09482635 19.34747345 3.09336853 20.0919342 C3.08782225 22.37383365 3.0752802 24.65563079 3.0625 26.9375 C3.05747804 28.49544128 3.05291636 30.05338412 3.04882812 31.61132812 C3.0378705 35.40759081 3.02064372 39.20377813 3 43 C2.67 43 2.34 43 2 43 C1.97421875 41.89140625 1.9484375 40.7828125 1.921875 39.640625 C1.86558344 38.17704453 1.80823633 36.71350438 1.75 35.25 C1.73582031 34.52039063 1.72164062 33.79078125 1.70703125 33.0390625 C1.54261971 29.42200859 1.38424322 27.43703999 -1.046875 24.671875 C-1.69140625 24.12015625 -2.3359375 23.5684375 -3 23 C-3 22.01 -3 21.02 -3 20 C-4.32 20.33 -5.64 20.66 -7 21 C-8.17064385 17.15359879 -8.5430797 15.15514999 -6.80078125 11.44921875 C-5.74544207 9.7243908 -4.66032114 8.01734899 -3.54296875 6.33203125 C-2.1786058 4.26994345 -1.05236831 2.23307421 0 0 Z " fill="#2E026B" transform="translate(210,183)"/>
<path d="M0 0 C0.33 0 0.66 0 1 0 C2.98491946 14.03621618 3.23441945 27.83745864 3 42 C3.66 42.33 4.32 42.66 5 43 C5.66666667 44.33333333 6.33333333 45.66666667 7 47 C7.515625 47.515625 8.03125 48.03125 8.5625 48.5625 C10 50 10 50 11 53 C11.66 53.66 12.32 54.32 13 55 C15 57 15 57 16 60 C12.52027191 58.84009064 11.99966134 57.99124901 9.93359375 55.0703125 C9.36576172 54.27496094 8.79792969 53.47960937 8.21289062 52.66015625 C7.62701172 51.82355469 7.04113281 50.98695313 6.4375 50.125 C5.84775391 49.29613281 5.25800781 48.46726562 4.65039062 47.61328125 C-0.14870543 40.85414483 -2.50717206 36.27828023 -3.6875 28.0625 C-3.82994141 27.15564453 -3.97238281 26.24878906 -4.11914062 25.31445312 C-4.24869141 24.43853516 -4.37824219 23.56261719 -4.51171875 22.66015625 C-4.62990967 21.86230713 -4.74810059 21.06445801 -4.86987305 20.24243164 C-5.00424769 17.92680111 -4.68422643 16.20381997 -4 14 C-2.43413992 15.56586008 -2.38905307 17.4251488 -1.9375 19.5625 C-1.76089844 20.38878906 -1.58429688 21.21507812 -1.40234375 22.06640625 C-1.26957031 22.70449219 -1.13679688 23.34257812 -1 24 C-0.09516363 18.63510405 0.12303662 13.49682543 0.0625 8.0625 C0.05798828 7.28326172 0.05347656 6.50402344 0.04882812 5.70117188 C0.03716908 3.80074732 0.01923877 1.90036294 0 0 Z " fill="#E85B0B" transform="translate(270,214)"/>
<path d="M0 0 C3.36063361 3.20499534 6.06557951 6.33983369 8.5625 10.25 C11.94111419 15.42969018 15.42730916 20.51465524 19 25.5625 C19.51151611 26.28526123 20.02303223 27.00802246 20.55004883 27.75268555 C24.65354571 33.53586912 28.80278801 39.28438485 33 45 C32.505 45.99 32.505 45.99 32 47 C27.54540034 43.98659435 25.11663843 40.41495008 22.33203125 35.92578125 C21.13705765 33.86802774 21.13705765 33.86802774 19 33 C19 33.99 19 34.98 19 36 C19.66 36 20.32 36 21 36 C21.33 38.64 21.66 41.28 22 44 C18.75811357 42.37905679 18.37687114 38.88590646 17.25 35.625 C15.03222101 29.41882948 12.45706251 23.73480866 9.1015625 18.0390625 C8 16 8 16 8 14 C7.34 14 6.68 14 6 14 C3 8.25 3 8.25 3 6 C2.34 6 1.68 6 1 6 C0.67 4.02 0.34 2.04 0 0 Z " fill="#B5311F" transform="translate(224,120)"/>
<path d="M0 0 C0.66 0 1.32 0 2 0 C2.98956824 8.48201352 0.16522996 14.27050324 -5 21 C-7.234375 22.34765625 -7.234375 22.34765625 -9 23 C-9.33 22.01 -9.66 21.02 -10 20 C-10.99 20 -11.98 20 -13 20 C-13.33 20.99 -13.66 21.98 -14 23 C-17.0625 24.1875 -17.0625 24.1875 -20 25 C-20 24.34 -20 23.68 -20 23 C-19.2575 22.443125 -18.515 21.88625 -17.75 21.3125 C-15.25197993 19.21189221 -14.42160986 18.19915195 -13 15.4375 C-11 12 -11 12 -8.625 10.625 C-5.03956831 8.40544705 -3.48703493 5.42841926 -1.33203125 1.86328125 C-0.89246094 1.24839844 -0.45289063 0.63351563 0 0 Z " fill="#E64F07" transform="translate(207,178)"/>
<path d="M0 0 C0.20380845 9.33302146 0.3904598 18.66634191 0.5625 28 C0.57523327 28.69027157 0.58796654 29.38054314 0.60108566 30.09173203 C1.0318818 53.75260389 0.9417478 77.3495309 0 101 C-0.99 101 -1.98 101 -3 101 C-4.25854492 99.65478516 -4.25854492 99.65478516 -5.48046875 97.7890625 C-5.92197266 97.12132812 -6.36347656 96.45359375 -6.81835938 95.765625 C-7.49608398 94.70601562 -7.49608398 94.70601562 -8.1875 93.625 C-8.88262695 92.57699219 -8.88262695 92.57699219 -9.59179688 91.5078125 C-13 86.28758975 -13 86.28758975 -13 84 C-12.01 84 -11.02 84 -10 84 C-7 88.22222222 -7 88.22222222 -7 91 C-6.34 91 -5.68 91 -5 91 C-4.01 92.65 -3.02 94.3 -2 96 C-2 65.64 -2 35.28 -2 4 C-2.99 3.67 -3.98 3.34 -5 3 C-1.125 0 -1.125 0 0 0 Z " fill="#430569" transform="translate(328,156)"/>
<path d="M0 0 C0 10.89 0 21.78 0 33 C-0.33 33 -0.66 33 -1 33 C-1.66 24.75 -2.32 16.5 -3 8 C-5.64 7.67 -8.28 7.34 -11 7 C-10.34 5.35 -9.68 3.7 -9 2 C-12.26460973 3.80412643 -13.88929795 4.83394693 -16 8 C-16.33 7.01 -16.66 6.02 -17 5 C-17 5.66 -17 6.32 -17 7 C-21.95 8.485 -21.95 8.485 -27 10 C-26.375 7.125 -26.375 7.125 -25 4 C-22.0625 2.75 -22.0625 2.75 -19 2 C-16 0 -16 0 0 0 Z " fill="#F3C63F" transform="translate(327,103)"/>
<path d="M0 0 C0.33 0.66 0.66 1.32 1 2 C0.36868164 3.01344482 -0.26263672 4.02688965 -0.91308594 5.07104492 C-4.39847102 11.76161562 -3.4892451 19.5202248 -3.390625 26.86328125 C-3.38315262 28.50375169 -3.37746441 30.14423114 -3.37347412 31.78471375 C-3.35827689 36.0827441 -3.31905939 40.38022489 -3.2746582 44.67803955 C-3.2336495 49.05937306 -3.21543203 53.44079518 -3.1953125 57.82226562 C-3.15711427 65.50963037 -3.09915744 73.19662621 -3.0269165 80.88374329 C-3.00930737 82.92243922 -3 84.96122802 -3 87 C-3.66 87 -4.32 87 -5 87 C-6.19325588 79.45247718 -6.18217854 71.94316806 -6.203125 64.31640625 C-6.20595238 63.61785963 -6.20877975 62.91931301 -6.21169281 62.19959831 C-6.2266037 58.50635282 -6.23588559 54.81314561 -6.24023438 51.11987305 C-6.24572281 47.32960104 -6.26978172 43.53968753 -6.29820633 39.74952793 C-6.3169262 36.81108094 -6.32204314 33.87271901 -6.32357025 30.93421745 C-6.32657368 29.5377194 -6.33452296 28.141222 -6.34775543 26.7447834 C-6.43623947 16.6941863 -5.74098749 8.47479105 0 0 Z " fill="#784029" transform="translate(294,113)"/>
<path d="M0 0 C4.1937936 3.90509042 7.32583032 8.1181911 10.5 12.875 C11.42645769 14.24781826 12.35353684 15.62021734 13.28125 16.9921875 C13.95184448 17.99318481 13.95184448 17.99318481 14.63598633 19.0144043 C15.99388292 20.99109536 17.418873 22.90430593 18.85546875 24.82421875 C21 28 21 28 20.8125 30.9375 C20.544375 31.618125 20.27625 32.29875 20 33 C19.34 32.67 18.68 32.34 18 32 C18 30.68 18 29.36 18 28 C15.69 27.67 13.38 27.34 11 27 C10 22.25 10 22.25 10 20 C8.576875 19.690625 8.576875 19.690625 7.125 19.375 C4 18 4 18 2.625 15.25 C2.01463498 12.07610191 2 9.21864315 2 6 C1.34 5.34 0.68 4.68 0 4 C0 2.68 0 1.36 0 0 Z " fill="#C58F2A" transform="translate(294,220)"/>
<path d="M0 0 C1.125 3.75 1.125 3.75 0 6 C-0.66 6 -1.32 6 -2 6 C-2.12375 6.639375 -2.2475 7.27875 -2.375 7.9375 C-2.58125 8.618125 -2.7875 9.29875 -3 10 C-3.99 10.495 -3.99 10.495 -5 11 C-5.33 11.99 -5.66 12.98 -6 14 C-8.0625 14.6875 -8.0625 14.6875 -10 15 C-10 15.66 -10 16.32 -10 17 C-11.5 18.625 -11.5 18.625 -13 20 C-12.01 20.33 -11.02 20.66 -10 21 C-10 20.34 -10 19.68 -10 19 C-8.865625 18.71125 -7.73125 18.4225 -6.5625 18.125 C-5.386875 17.75375 -4.21125 17.3825 -3 17 C-2.67 16.34 -2.34 15.68 -2 15 C-0.4765625 13.89453125 -0.4765625 13.89453125 1.375 12.8125 C1.98085937 12.44769531 2.58671875 12.08289063 3.2109375 11.70703125 C5 11 5 11 8 12 C7.2575 12.556875 6.515 13.11375 5.75 13.6875 C2.9754394 15.8652095 2.9754394 15.8652095 1.0625 18.4375 C-2.1073356 22.3757806 -5.71746779 26.39047705 -11 27 C-11.33 25.68 -11.66 24.36 -12 23 C-12.45375 23.825 -12.9075 24.65 -13.375 25.5 C-14.179375 26.7375 -14.179375 26.7375 -15 28 C-15.66 28 -16.32 28 -17 28 C-17.48841153 20.7959299 -17.48841153 20.7959299 -15.3125 17.25 C-12.98823865 14.98855653 -10.55062853 12.99914128 -8 11 C-7.67 10.34 -7.34 9.68 -7 9 C-6.34 9 -5.68 9 -5 9 C-4.731875 8.2575 -4.46375 7.515 -4.1875 6.75 C-3.05770579 4.13363446 -1.79106798 2.19812889 0 0 Z " fill="#7B029B" transform="translate(201,199)"/>
<path d="M0 0 C0.99 0.66 1.98 1.32 3 2 C3.34057617 4.61376953 3.34057617 4.61376953 3.29296875 7.8828125 C3.28330078 9.04941406 3.27363281 10.21601563 3.26367188 11.41796875 C3.23853516 12.64128906 3.21339844 13.86460937 3.1875 15.125 C3.16719727 16.97158203 3.16719727 16.97158203 3.14648438 18.85546875 C3.11103543 21.90407843 3.06162079 24.951825 3 28 C2.34 28 1.68 28 1 28 C-0.10914408 21.46837378 0.21558847 15.56492112 1 9 C-0.27200971 10.10281127 -1.54255853 11.20730769 -2.8125 12.3125 C-3.52019531 12.92738281 -4.22789062 13.54226562 -4.95703125 14.17578125 C-7.60285153 16.53830146 -9.70052659 18.48839959 -11.5 21.5625 C-13 24 -13 24 -16 26 C-14.95265709 18.66859966 -10.16735591 13.42729242 -5.8125 7.6875 C-5.25369141 6.94693359 -4.69488281 6.20636719 -4.11914062 5.44335938 C-2.74826754 3.62724546 -1.37517323 1.81285866 0 0 Z " fill="#CC07BE" transform="translate(324,180)"/>
<path d="M0 0 C0.33 0 0.66 0 1 0 C1 10.89 1 21.78 1 33 C6.94 32.505 6.94 32.505 13 32 C13.33 31.34 13.66 30.68 14 30 C15.32 30 16.64 30 18 30 C18 28.68 18 27.36 18 26 C19.32 26 20.64 26 22 26 C22 26.66 22 27.32 22 28 C22.61875 27.34 23.2375 26.68 23.875 26 C26 24 26 24 28 24 C29.62514468 22.54166642 29.62514468 22.54166642 31 21 C31.8125 22.6875 31.8125 22.6875 32 25 C26.87208363 31.18366386 22.95074346 32.86417951 15 34 C10.05 34 5.1 34 0 34 C0 22.78 0 11.56 0 0 Z " fill="#B90D84" transform="translate(174,246)"/>
<path d="M0 0 C6.74435205 -0.05074705 13.48865477 -0.0857534 20.2331543 -0.10986328 C22.52711833 -0.11991528 24.82106957 -0.1335589 27.11499023 -0.15087891 C30.41393188 -0.17516209 33.71270397 -0.18649123 37.01171875 -0.1953125 C38.03585373 -0.20563507 39.05998871 -0.21595764 40.11515808 -0.22659302 C41.07577652 -0.22674408 42.03639496 -0.22689514 43.02612305 -0.22705078 C43.86773483 -0.231492 44.70934662 -0.23593323 45.57646179 -0.24050903 C48.33648004 0.03339188 50.48143665 0.86584159 53 2 C53 2.33 53 2.66 53 3 C51.28901123 2.97643433 51.28901123 2.97643433 49.54345703 2.95239258 C45.3205468 2.89818476 41.09766744 2.86368347 36.87451172 2.83520508 C35.04503207 2.82009749 33.21558875 2.79961032 31.38623047 2.77368164 C28.76000008 2.73738415 26.13424751 2.72029385 23.5078125 2.70703125 C22.27649094 2.68380547 22.27649094 2.68380547 21.02029419 2.66011047 C18.47607027 2.6241705 18.47607027 2.6241705 15 3 C14.01 4.485 14.01 4.485 13 6 C13.66 6.33 14.32 6.66 15 7 C14.67 7.99 14.34 8.98 14 10 C13.0409375 8.88625 13.0409375 8.88625 12.0625 7.75 C8.65841226 4.29672024 4.45349856 2.73676741 0 1 C0 0.67 0 0.34 0 0 Z " fill="#720E68" transform="translate(156,102)"/>
<path d="M0 0 C3.26967839 2.63653257 4.09239888 5.64152812 5.375 9.5625 C6.83972136 13.908082 8.41580778 18.0627978 10.5625 22.125 C13.36674491 27.48422362 15.56631261 33.11629591 17 39 C16.67 39.66 16.34 40.32 16 41 C12.30912706 36.20186518 11.00332648 31.94074887 10 26 C9.34 26 8.68 26 8 26 C7.67 27.32 7.34 28.64 7 30 C5.68 30.33 4.36 30.66 3 31 C3.52268466 28.23723823 4.10869587 25.6739124 5 23 C4.34 23 3.68 23 3 23 C3 22.01 3 21.02 3 20 C4.32 20 5.64 20 7 20 C6.505 19.0925 6.01 18.185 5.5 17.25 C4 14 4 14 4 10 C3.34 10 2.68 10 2 10 C0.68373308 6.38026598 0 3.90432869 0 0 Z " fill="#6B0946" transform="translate(237,146)"/>
<path d="M0 0 C4.11713089 3.84265549 7.19838462 7.94687206 10.3125 12.625 C11.27223339 14.04508535 12.23317956 15.46435179 13.1953125 16.8828125 C13.66614258 17.57793945 14.13697266 18.27306641 14.62207031 18.98925781 C17.64486802 23.40027163 20.8210505 27.70067575 24 32 C23.67 32.66 23.34 33.32 23 34 C22.01 34 21.02 34 20 34 C19.34 32.02 18.68 30.04 18 28 C17.34 28 16.68 28 16 28 C14.375 26.8125 14.375 26.8125 13 25 C12.8125 22.3125 12.8125 22.3125 13 20 C12.01 19.67 11.02 19.34 10 19 C10 18.34 10 17.68 10 17 C9.34 17 8.68 17 8 17 C8 15.35 8 13.7 8 12 C7.236875 11.87625 6.47375 11.7525 5.6875 11.625 C1.80538177 9.2776727 1.57028381 6.36806834 0.48046875 2.1171875 C0.32191406 1.41851562 0.16335938 0.71984375 0 0 Z " fill="#9B3E19" transform="translate(261,173)"/>
<path d="M0 0 C0.33 0 0.66 0 1 0 C1.99 4.62 2.98 9.24 4 14 C3.01 14.66 2.02 15.32 1 16 C1.33 16.66 1.66 17.32 2 18 C-1.22393966 16.88829667 -1.94453563 16.10649159 -3.5625 13 C-4.036875 12.01 -4.51125 11.02 -5 10 C-5.99 9.34 -6.98 8.68 -8 8 C-8.6875 5.875 -8.6875 5.875 -9 4 C-8.34 3.67 -7.68 3.34 -7 3 C-7 3.99 -7 4.98 -7 6 C-6.01 6 -5.02 6 -4 6 C-3.67 4.68 -3.34 3.36 -3 2 C-2.01 2 -1.02 2 0 2 C0 1.34 0 0.68 0 0 Z " fill="#E6A829" transform="translate(288,259)"/>
<path d="M0 0 C0.66 0 1.32 0 2 0 C2.2475 0.804375 2.495 1.60875 2.75 2.4375 C3.1625 3.283125 3.575 4.12875 4 5 C6.02463255 5.65213292 6.02463255 5.65213292 8 6 C8.33 6.99 8.66 7.98 9 9 C9.66 9 10.32 9 11 9 C11.20625 9.804375 11.4125 10.60875 11.625 11.4375 C13.14076682 15.36471404 15.15596829 18.42225482 17.5625 21.8515625 C19 24 19 24 20.0703125 26.15234375 C21.29834296 28.5929253 23.04418029 30.1017044 25 32 C26.35156675 33.65191491 27.68962066 35.31522656 29 37 C28.67 37.66 28.34 38.32 28 39 C23.65397809 34.93514402 20.25528269 30.46694442 16.8125 25.625 C16.25022705 24.8400415 15.6879541 24.05508301 15.10864258 23.24633789 C11.3908921 18.0286547 7.75045851 12.76203114 4.1875 7.4375 C3.76122314 6.80086426 3.33494629 6.16422852 2.89575195 5.50830078 C0 1.12918123 0 1.12918123 0 0 Z " fill="#320A64" transform="translate(218,179)"/>
<path d="M0 0 C0.66 0.33 1.32 0.66 2 1 C2.71989695 11.18139978 3.14249173 21.35553835 3.25 31.5625 C3.27126953 32.56023437 3.29253906 33.55796875 3.31445312 34.5859375 C3.34879323 41.91509652 2.71633883 48.81800309 -2.1875 54.5625 C-2.785625 55.036875 -3.38375 55.51125 -4 56 C-3.37348062 49.35889462 -3.37348062 49.35889462 -1.48405457 47.54325867 C0.46431907 45.51715763 0.39258589 44.39750503 0.43237305 41.62036133 C0.45216721 40.73967484 0.47196136 39.85898834 0.49235535 38.95161438 C0.49874527 38.00465195 0.50513519 37.05768951 0.51171875 36.08203125 C0.52966995 35.10965012 0.54762115 34.13726898 0.56611633 33.13542175 C0.62032467 30.02782536 0.65414898 26.92038348 0.6875 23.8125 C0.72066376 21.70635866 0.75515253 19.60023773 0.79101562 17.49414062 C0.87605731 12.32953839 0.94281841 7.16498281 1 2 C-0.98 2.99 -0.98 2.99 -3 4 C-2.67 3.01 -2.34 2.02 -2 1 C-1.34 0.67 -0.68 0.34 0 0 Z " fill="#60087A" transform="translate(210,214)"/>
<path d="M0 0 C0.33 0 0.66 0 1 0 C1 14.85 1 29.7 1 45 C-2.52844977 41.47155023 -2.64728672 39.84980754 -3 35 C-2.67 34.34 -2.34 33.68 -2 33 C-1.85770275 31.03937856 -1.77373984 29.07438417 -1.71875 27.109375 C-1.68136719 25.92472656 -1.64398438 24.74007812 -1.60546875 23.51953125 C-1.57066406 22.27558594 -1.53585937 21.03164062 -1.5 19.75 C-1.43079115 17.3071838 -1.35799446 14.86446607 -1.28125 12.421875 C-1.25095703 11.33487305 -1.22066406 10.24787109 -1.18945312 9.12792969 C-1.00149345 6.02465727 -0.56709187 3.05471956 0 0 Z " fill="#780BAC" transform="translate(326,208)"/>
<path d="M0 0 C3.58329827 5.3749474 3.14498041 11.61506414 3.09765625 17.90234375 C3.0962413 18.6249086 3.09482635 19.34747345 3.09336853 20.0919342 C3.08782225 22.37383365 3.0752802 24.65563079 3.0625 26.9375 C3.05747804 28.49544128 3.05291636 30.05338412 3.04882812 31.61132812 C3.0378705 35.40759081 3.02064372 39.20377813 3 43 C2.67 43 2.34 43 2 43 C1.67 32.44 1.34 21.88 1 11 C-1.46278801 11 -2.85224119 11.85452863 -5 13 C-5 13.99 -5 14.98 -5 16 C-5.99 16 -6.98 16 -8 16 C-6.57250019 12.20950293 -4.83763458 8.72877544 -2.875 5.1875 C-2.33617187 4.21167969 -1.79734375 3.23585937 -1.2421875 2.23046875 C-0.83226562 1.49441406 -0.42234375 0.75835937 0 0 Z " fill="#1D0442" transform="translate(210,183)"/>
<path d="M0 0 C3.54185488 3.35770298 6.30656177 6.70737552 8.9375 10.8125 C12.11661328 15.69277067 15.42855521 20.40041201 19 25 C18.67 25.66 18.34 26.32 18 27 C17.01 26.34 16.02 25.68 15 25 C14.67 25.66 14.34 26.32 14 27 C12.99491199 25.21118264 11.99607264 23.41885304 11 21.625 C10.1646875 20.12839844 10.1646875 20.12839844 9.3125 18.6015625 C8 16 8 16 8 14 C7.34 14 6.68 14 6 14 C3 8.25 3 8.25 3 6 C2.34 6 1.68 6 1 6 C0.67 4.02 0.34 2.04 0 0 Z " fill="#A02E22" transform="translate(224,120)"/>
<path d="M0 0 C0.66 0 1.32 0 2 0 C2 7.92 2 15.84 2 24 C1.67 24 1.34 24 1 24 C0.67 19.38 0.34 14.76 0 10 C-0.99 10 -1.98 10 -3 10 C-3.226875 10.53625 -3.45375 11.0725 -3.6875 11.625 C-5.43382056 14.78500863 -7.6402849 17.2676983 -10 20 C-10.33 19.34 -10.66 18.68 -11 18 C-9.75717988 15.54961707 -8.47117661 13.226675 -7.0625 10.875 C-6.48338867 9.88693359 -6.48338867 9.88693359 -5.89257812 8.87890625 C-4.93553422 7.248387 -3.96867185 5.62363816 -3 4 C-2.34 4 -1.68 4 -1 4 C-0.67 2.68 -0.34 1.36 0 0 Z " fill="#B008BF" transform="translate(209,216)"/>
<path d="M0 0 C0.99 0.33 1.98 0.66 3 1 C2.154375 1.969375 1.30875 2.93875 0.4375 3.9375 C-3.19785946 8.17152248 -6.60596819 12.57169222 -10 17 C-10.33 15.68 -10.66 14.36 -11 13 C-10.34 13 -9.68 13 -9 13 C-8.67 10.69 -8.34 8.38 -8 6 C-8.99 6.33 -9.98 6.66 -11 7 C-11 6.34 -11 5.68 -11 5 C-7.72543296 2.66102354 -4.93779819 1.6562997 -1 1 C-0.67 0.67 -0.34 0.34 0 0 Z " fill="#E3470D" transform="translate(312,163)"/>
<path d="M0 0 C0.99 0.66 1.98 1.32 3 2 C3.34057617 4.61376953 3.34057617 4.61376953 3.29296875 7.8828125 C3.28330078 9.04941406 3.27363281 10.21601563 3.26367188 11.41796875 C3.23853516 12.64128906 3.21339844 13.86460937 3.1875 15.125 C3.16719727 16.97158203 3.16719727 16.97158203 3.14648438 18.85546875 C3.11103543 21.90407843 3.06162079 24.951825 3 28 C2.67 28 2.34 28 2 28 C2 20.08 2 12.16 2 4 C-2.81375192 7.27828869 -2.81375192 7.27828869 -4 10 C-4.66 10 -5.32 10 -6 10 C-6.25523437 10.55171875 -6.51046875 11.1034375 -6.7734375 11.671875 C-8.19302074 14.36637058 -9.86132254 16.76778728 -11.625 19.25 C-12.25664062 20.14203125 -12.88828125 21.0340625 -13.5390625 21.953125 C-14.02117187 22.62859375 -14.50328125 23.3040625 -15 24 C-15 17.74424809 -9.46463434 12.50109049 -5.8125 7.6875 C-5.25369141 6.94693359 -4.69488281 6.20636719 -4.11914062 5.44335938 C-2.74826754 3.62724546 -1.37517323 1.81285866 0 0 Z " fill="#B208A5" transform="translate(324,180)"/>
<path d="M0 0 C1.03366148 3.74702285 1.25733598 6.22799206 0 10 C-0.99 10.33 -1.98 10.66 -3 11 C-4.87240818 13.51238021 -4.87240818 13.51238021 -6.625 16.5 C-9.9602649 21.9602649 -9.9602649 21.9602649 -11 23 C-11.23427778 25.01594582 -11.41336124 27.038474 -11.5625 29.0625 C-11.64628906 30.16722656 -11.73007812 31.27195313 -11.81640625 32.41015625 C-11.87699219 33.26480469 -11.93757813 34.11945313 -12 35 C-12.33 35 -12.66 35 -13 35 C-13.02691685 32.54159395 -13.04679802 30.08348118 -13.0625 27.625 C-13.07087891 26.92632812 -13.07925781 26.22765625 -13.08789062 25.5078125 C-13.11328125 20.2265625 -13.11328125 20.2265625 -12 18 C-11.34 18 -10.68 18 -10 18 C-9.5978125 16.90365234 -9.5978125 16.90365234 -9.1875 15.78515625 C-8.02585603 13.0606426 -6.6875054 10.86328902 -5 8.4375 C-3.09937057 5.69584204 -1.42409849 3.01936265 0 0 Z " fill="#EC8912" transform="translate(303,147)"/>
<path d="M0 0 C5.13626041 4.56556481 8.74846755 9.47854574 9.25 16.5 C9.1675 17.325 9.085 18.15 9 19 C7.35 18.67 5.7 18.34 4 18 C2.39098607 13.77633842 2 10.48271888 2 6 C1.34 5.34 0.68 4.68 0 4 C0 2.68 0 1.36 0 0 Z " fill="#F2B12D" transform="translate(294,220)"/>
<path d="M0 0 C3.28295143 1.64147571 4.47182371 4.53615458 5.69238281 7.91894531 C6.38405415 10.14356529 7.01649226 12.37621803 7.625 14.625 C7.84373779 15.4195459 8.06247559 16.2140918 8.2878418 17.03271484 C9.86888814 22.99264844 10.85025448 28.81959405 11 35 C9.68 35 8.36 35 7 35 C7.17402344 34.30519531 7.34804688 33.61039063 7.52734375 32.89453125 C8.05332633 29.67343131 7.88327655 26.93090738 7.5625 23.6875 C7.46066406 22.61886719 7.35882813 21.55023438 7.25390625 20.44921875 C7.17011719 19.64097656 7.08632813 18.83273438 7 18 C6.34 18 5.68 18 5 18 C4.896875 16.88625 4.79375 15.7725 4.6875 14.625 C4.460625 13.42875 4.23375 12.2325 4 11 C3.01 10.34 2.02 9.68 1 9 C0.48828125 6.8359375 0.48828125 6.8359375 0.3125 4.375 C0.24675781 3.55773437 0.18101562 2.74046875 0.11328125 1.8984375 C0.07589844 1.27195313 0.03851563 0.64546875 0 0 Z " fill="#530645" transform="translate(250,182)"/>
<path d="M0 0 C4.18690034 1.53110125 5.8844356 4.24400059 8.3125 7.875 C9.03050781 8.92429688 9.74851563 9.97359375 10.48828125 11.0546875 C12 14 12 14 11.73046875 16.3828125 C11.36888672 17.18332031 11.36888672 17.18332031 11 18 C9.35 17.67 7.7 17.34 6 17 C6 15.02 6 13.04 6 11 C5.01 11 4.02 11 3 11 C1.64560332 8.29120665 1.93498549 5.99066732 2 3 C1.34 3 0.68 3 0 3 C0 2.01 0 1.02 0 0 Z " fill="#E03604" transform="translate(243,153)"/>
<path d="M0 0 C3.49939525 3.24018078 6.77242203 6.75427446 9 11 C8.92179819 14.51908131 8.48936754 15.51063246 6 18 C5.855625 16.865625 5.71125 15.73125 5.5625 14.5625 C5.38828522 11.19222799 5.38828522 11.19222799 4 10 C3.34 10.66 2.68 11.32 2 12 C1.67 10.35 1.34 8.7 1 7 C-0.32 7.33 -1.64 7.66 -3 8 C-2.814375 7.38125 -2.62875 6.7625 -2.4375 6.125 C-1.76313824 3.95839822 -1.76313824 3.95839822 -3 2 C-2.01 2 -1.02 2 0 2 C0 1.34 0 0.68 0 0 Z " fill="#D58B2A" transform="translate(203,167)"/>
<path d="M0 0 C1.65 1.65 3.3 3.3 5 5 C4.71995117 5.527146 4.43990234 6.05429199 4.15136719 6.59741211 C1.15666501 12.67750484 0.35859043 17.83482913 0.25 24.5625 C0.20552734 25.93245117 0.20552734 25.93245117 0.16015625 27.33007812 C0.0903115 29.55346923 0.03720255 31.77586468 0 34 C-0.33 34 -0.66 34 -1 34 C-2.05105583 28.22703665 -1.97392723 22.84453113 -1.625 17 C-1.58117187 16.13632813 -1.53734375 15.27265625 -1.4921875 14.3828125 C-1.22696322 9.53510207 -0.7685639 4.79375448 0 0 Z " fill="#F8AA1B" transform="translate(286,213)"/>
<path d="M0 0 C0.66 0 1.32 0 2 0 C2.25 6.625 2.25 6.625 0 10 C-2.625 10.1875 -2.625 10.1875 -5 10 C-5.33 11.32 -5.66 12.64 -6 14 C-6.86625 14.12375 -6.86625 14.12375 -7.75 14.25 C-10.6159304 15.20531013 -11.9990764 16.78469173 -14 19 C-12.79374068 15.56680041 -11.71267378 13.41126558 -9 11 C-6.19757655 8.34129057 -3.94868095 5.9222883 -1.8125 2.6875 C-1.214375 1.800625 -0.61625 0.91375 0 0 Z " fill="#EB5F10" transform="translate(207,178)"/>
<path d="M0 0 C0.33 0.66 0.66 1.32 1 2 C0.67 2.66 0.34 3.32 0 4 C0.66 4.33 1.32 4.66 2 5 C2.66 4.34 3.32 3.68 4 3 C5.64991582 2.29289322 7.31562256 1.62056011 9 1 C8.67 2.65 8.34 4.3 8 6 C7.01 6.33 6.02 6.66 5 7 C5.33 7.66 5.66 8.32 6 9 C6.99 9.33 7.98 9.66 9 10 C7 12 7 12 4.6875 12.0625 C0.85058827 10.54558141 -1.28786674 7.73408111 -3 4 C-2.67 3.01 -2.34 2.02 -2 1 C-1.34 0.67 -0.68 0.34 0 0 Z " fill="#7E04B7" transform="translate(311,228)"/>
<path d="M0 0 C0 0.99 0 1.98 0 3 C0.99 2.67 1.98 2.34 3 2 C3 2.66 3 3.32 3 4 C2.360625 4.5775 1.72125 5.155 1.0625 5.75 C-1.44350418 8.48382274 -1.66980509 10.36785602 -2 14 C-3.32 13.67 -4.64 13.34 -6 13 C-7.55426378 7.0220624 -7.55426378 7.0220624 -6.0234375 4.19921875 C-2.59591289 0 -2.59591289 0 0 0 Z " fill="#A1039A" transform="translate(298,195)"/>
<path d="M0 0 C1.77503906 0.03480469 1.77503906 0.03480469 3.5859375 0.0703125 C5.36871094 0.09738281 5.36871094 0.09738281 7.1875 0.125 C8.10273438 0.14820312 9.01796875 0.17140625 9.9609375 0.1953125 C7.9609375 2.1953125 7.9609375 2.1953125 5.3359375 2.3203125 C4.5521875 2.2790625 3.7684375 2.2378125 2.9609375 2.1953125 C2.3009375 3.8453125 1.6409375 5.4953125 0.9609375 7.1953125 C1.9509375 7.5253125 2.9409375 7.8553125 3.9609375 8.1953125 C3.6309375 9.1853125 3.3009375 10.1753125 2.9609375 11.1953125 C2.3009375 11.1953125 1.6409375 11.1953125 0.9609375 11.1953125 C0.9609375 10.5353125 0.9609375 9.8753125 0.9609375 9.1953125 C0.3421875 9.1540625 -0.2765625 9.1128125 -0.9140625 9.0703125 C-1.9659375 8.6371875 -1.9659375 8.6371875 -3.0390625 8.1953125 C-4.2890625 5.1328125 -4.2890625 5.1328125 -5.0390625 2.1953125 C-3.0390625 0.1953125 -3.0390625 0.1953125 0 0 Z " fill="#DF0AA2" transform="translate(174.0390625,103.8046875)"/>
<path d="M0 0 C3.95526583 2.09396426 6.29233223 4.22822877 8.875 7.875 C9.49117188 8.71804687 10.10734375 9.56109375 10.7421875 10.4296875 C12.23406906 13.47831503 12.01328487 14.82352271 11 18 C10.01 17.67 9.02 17.34 8 17 C7.95875 16.0925 7.9175 15.185 7.875 14.25 C7.31648515 10.72958783 7.31648515 10.72958783 4 9.0625 C1 7 1 7 0.125 3.25 C0.08375 2.1775 0.0425 1.105 0 0 Z " fill="#B25D19" transform="translate(282,205)"/>
<path d="M0 0 C0.99 0.66 1.98 1.32 3 2 C3 2.66 3 3.32 3 4 C2.57074219 4.41894531 2.14148438 4.83789062 1.69921875 5.26953125 C-0.49434348 7.50343486 -1.72501551 9.9250293 -3.1875 12.6875 C-3.71730469 13.68136719 -4.24710938 14.67523438 -4.79296875 15.69921875 C-5.19128906 16.45847656 -5.58960938 17.21773437 -6 18 C-6.33 18 -6.66 18 -7 18 C-7.125 15.625 -7.125 15.625 -7 13 C-6.34 12.34 -5.68 11.68 -5 11 C-5.66 9.68 -6.32 8.36 -7 7 C-6.21625 6.401875 -5.4325 5.80375 -4.625 5.1875 C-1.85425677 3.08914751 -1.85425677 3.08914751 0 0 Z " fill="#9901A9" transform="translate(205,216)"/>
<path d="M0 0 C1.125 3.75 1.125 3.75 0 6 C-0.66 6 -1.32 6 -2 6 C-2.12375 6.639375 -2.2475 7.27875 -2.375 7.9375 C-2.58125 8.618125 -2.7875 9.29875 -3 10 C-3.99 10.495 -3.99 10.495 -5 11 C-5.33 11.99 -5.66 12.98 -6 14 C-8.0625 14.6875 -8.0625 14.6875 -10 15 C-10 15.66 -10 16.32 -10 17 C-11.62626404 18.38232443 -13.2925002 19.71937515 -15 21 C-15.66 20.67 -16.32 20.34 -17 20 C-14.31011108 16.41348144 -11.5185635 13.75779302 -8 11 C-7.67 10.34 -7.34 9.68 -7 9 C-6.34 9 -5.68 9 -5 9 C-4.731875 8.2575 -4.46375 7.515 -4.1875 6.75 C-3.05770579 4.13363446 -1.79106798 2.19812889 0 0 Z " fill="#890F57" transform="translate(201,199)"/>
<path d="M0 0 C1.27208622 0.62244599 2.54261882 1.24806767 3.8125 1.875 C4.52019531 2.22304688 5.22789062 2.57109375 5.95703125 2.9296875 C8 4 8 4 11 6 C-0.55 6 -12.1 6 -24 6 C-24 5.67 -24 5.34 -24 5 C-16.08 4.67 -8.16 4.34 0 4 C0 2.68 0 1.36 0 0 Z " fill="#EBC75A" transform="translate(332,274)"/>
<path d="M0 0 C2.4375 0.75 2.4375 0.75 5 2 C5.8125 4.125 5.8125 4.125 6 6 C6.66 6 7.32 6 8 6 C8.268125 6.763125 8.53625 7.52625 8.8125 8.3125 C9.80853525 11.00407372 9.80853525 11.00407372 11.625 12.625 C12.07875 13.07875 12.5325 13.5325 13 14 C13 14.99 13 15.98 13 17 C13.99 17.33 14.98 17.66 16 18 C15.67 19.32 15.34 20.64 15 22 C13.05953963 19.27292725 11.12316837 16.54297568 9.1875 13.8125 C8.64029297 13.04357422 8.09308594 12.27464844 7.52929688 11.48242188 C4.87209419 7.7301296 2.28295715 3.99717761 0 0 Z " fill="#180C54" transform="translate(244,217)"/>
<path d="M0 0 C-3.37304958 4.67126797 -6.68100471 9.16089308 -11 13 C-11.66 13 -12.32 13 -13 13 C-11.24934688 7.74804064 -8.43877115 2.67230022 -3.8125 -0.5 C-2 -1 -2 -1 0 0 Z " fill="#880461" transform="translate(310,175)"/>
<path d="M0 0 C0.66 0 1.32 0 2 0 C2.1080023 2.10304477 2.18558987 4.20766909 2.25 6.3125 C2.29640625 7.48425781 2.3428125 8.65601563 2.390625 9.86328125 C2 13 2 13 -0.015625 14.91796875 C-0.67046875 15.27503906 -1.3253125 15.63210937 -2 16 C-2.66 15.67 -3.32 15.34 -4 15 C-3.25 10.25 -3.25 10.25 -1 8 C-0.54188325 6.02764667 -0.54188325 6.02764667 -0.375 3.875 C-0.25125 2.59625 -0.1275 1.3175 0 0 Z " fill="#E99637" transform="translate(325,136)"/>
<path d="M0 0 C0.33 1.32 0.66 2.64 1 4 C1.66 4 2.32 4 3 4 C3 4.99 3 5.98 3 7 C2.34 7 1.68 7 1 7 C0.67 8.32 0.34 9.64 0 11 C-1.32 11.33 -2.64 11.66 -4 12 C-3.47731534 9.23723823 -2.89130413 6.6739124 -2 4 C-2.66 4 -3.32 4 -4 4 C-4 3.01 -4 2.02 -4 1 C-2.68 0.67 -1.36 0.34 0 0 Z " fill="#530177" transform="translate(244,165)"/>
<path d="M0 0 C0.33 3.3 0.66 6.6 1 10 C0.01 10.495 0.01 10.495 -1 11 C-1 9.02 -1 7.04 -1 5 C-1.99 5.33 -2.98 5.66 -4 6 C-4.99 6 -5.98 6 -7 6 C-8.33981486 6.3062434 -9.67511887 6.63451555 -11 7 C-5.34042553 0 -5.34042553 0 0 0 Z " fill="#630253" transform="translate(326,160)"/>
<path d="M0 0 C0.99 0 1.98 0 3 0 C6 4.22222222 6 4.22222222 6 7 C6.66 7 7.32 7 8 7 C10.1875 9.8125 10.1875 9.8125 12 13 C11.67 13.99 11.34 14.98 11 16 C11 15.34 11 14.68 11 14 C10.41734375 13.94714844 9.8346875 13.89429688 9.234375 13.83984375 C5.95214368 12.60613792 5.04740719 10.51593189 3.25 7.5625 C2.63640625 6.57378906 2.0228125 5.58507812 1.390625 4.56640625 C0 2 0 2 0 0 Z " fill="#410D85" transform="translate(315,240)"/>
<path d="M0 0 C7.23572035 2.48081841 10.85932289 6.84813686 15 13 C14.67 13.66 14.34 14.32 14 15 C12 13.625 12 13.625 10 12 C10 11.34 10 10.68 10 10 C9.34 10 8.68 10 8 10 C5.875 8.1875 5.875 8.1875 4 6 C4 5.01 4 4.02 4 3 C3.01 3 2.02 3 1 3 C0.67 2.01 0.34 1.02 0 0 Z " fill="#6B0C64" transform="translate(209,105)"/>
<path d="M0 0 C1.32 0.66 2.64 1.32 4 2 C0.38671875 6.6875 0.38671875 6.6875 -1 8 C-1.99 8 -2.98 8 -4 8 C-4 8.66 -4 9.32 -4 10 C-5.65 10 -7.3 10 -9 10 C-7.625 8 -7.625 8 -6 6 C-5.34 6 -4.68 6 -4 6 C-4 5.34 -4 4.68 -4 4 C-2.68 3.67 -1.36 3.34 0 3 C0 2.01 0 1.02 0 0 Z " fill="#5B018D" transform="translate(195,210)"/>
<path d="M0 0 C0.99 0.495 0.99 0.495 2 1 C4.14495732 8.17633868 4.25850895 15.57504858 4 23 C4.99 23.33 5.98 23.66 7 24 C6.67 25.32 6.34 26.64 6 28 C3.58898377 25.1366884 2.56489303 23.07509828 2.05078125 19.375 C1.92509766 18.50359375 1.79941406 17.6321875 1.66992188 16.734375 C1.55197266 15.83203125 1.43402344 14.9296875 1.3125 14 C1.18294922 13.09765625 1.05339844 12.1953125 0.91992188 11.265625 C0.38584893 7.4451667 0 3.86948268 0 0 Z " fill="#B84F2D" transform="translate(265,228)"/>
<path d="M0 0 C0 1.98 0 3.96 0 6 C-1.98 6.99 -1.98 6.99 -4 8 C-4.33 7.34 -4.66 6.68 -5 6 C-8.71888239 6.50712033 -11.73454239 7.11608215 -15 9 C-14.67 8.01 -14.34 7.02 -14 6 C-12.32514974 5.21183517 -10.64267359 4.43382022 -8.91796875 3.76171875 C-7.11118689 3.04415773 -5.36381673 2.18190836 -3.625 1.3125 C-1 0 -1 0 0 0 Z " fill="#E3621A" transform="translate(327,149)"/>
<path d="M0 0 C5.30505972 -0.43484096 5.30505972 -0.43484096 8 0 C9.6875 2.25 9.6875 2.25 11 5 C12.65533995 6.34736973 14.32012773 7.68334336 16 9 C16 9.66 16 10.32 16 11 C15.34 11 14.68 11 14 11 C13.34 10.01 12.68 9.02 12 8 C9.94074861 7.27617533 9.94074861 7.27617533 8 7 C8 6.34 8 5.68 8 5 C7.4225 4.731875 6.845 4.46375 6.25 4.1875 C3.9674132 2.98280141 2.0262058 1.59201885 0 0 Z " fill="#DC03A5" transform="translate(184,105)"/>
<path d="M0 0 C5.82868396 5.50486819 9.3465701 9.83212627 10 18 C9.34 16.68 8.68 15.36 8 14 C7.34 14 6.68 14 6 14 C3 8.25 3 8.25 3 6 C2.34 6 1.68 6 1 6 C0.67 4.02 0.34 2.04 0 0 Z " fill="#812149" transform="translate(224,120)"/>
<path d="M0 0 C1.5 1.3125 1.5 1.3125 3 3 C3 3.99 3 4.98 3 6 C3.66 6 4.32 6 5 6 C5.86375896 7.61992165 6.71575854 9.24611861 7.5625 10.875 C8.03816406 11.77992188 8.51382813 12.68484375 9.00390625 13.6171875 C9.49697266 14.79667969 9.49697266 14.79667969 10 16 C9.67 16.66 9.34 17.32 9 18 C8.67 16.68 8.34 15.36 8 14 C7.01 14 6.02 14 5 14 C4.34 12.68 3.68 11.36 3 10 C2.01 10.495 2.01 10.495 1 11 C1.33 8.69 1.66 6.38 2 4 C1.34 4 0.68 4 0 4 C0 2.68 0 1.36 0 0 Z " fill="#810368" transform="translate(227,128)"/>
<path d="M0 0 C3 1 3 1 4 2.875 C4.33 3.57625 4.66 4.2775 5 5 C5.515625 5.515625 6.03125 6.03125 6.5625 6.5625 C8 8 8 8 9 11 C9.66 11.66 10.32 12.32 11 13 C13 15 13 15 14 18 C10.72487043 16.90829014 10.24998905 16.36455512 8.30078125 13.69140625 C7.81416016 13.02689453 7.32753906 12.36238281 6.82617188 11.67773438 C6.0769043 10.63069336 6.0769043 10.63069336 5.3125 9.5625 C4.80138672 8.86833984 4.29027344 8.17417969 3.76367188 7.45898438 C0 2.26823264 0 2.26823264 0 0 Z " fill="#855F2C" transform="translate(272,256)"/>
<path d="M0 0 C0.33 0 0.66 0 1 0 C1.01417969 0.94101563 1.02835937 1.88203125 1.04296875 2.8515625 C1.02281405 10.88560854 1.02281405 10.88560854 4.5625 17.75 C5.366875 18.4925 6.17125 19.235 7 20 C7 20.66 7 21.32 7 22 C5.68 21.67 4.36 21.34 3 21 C3 20.01 3 19.02 3 18 C2.34 17.67 1.68 17.34 1 17 C0 16 0 16 -0.09765625 12.40234375 C-0.0909822 10.91403133 -0.07902183 9.42573568 -0.0625 7.9375 C-0.05798828 7.17888672 -0.05347656 6.42027344 -0.04882812 5.63867188 C-0.0370068 3.75908129 -0.01907078 1.87953101 0 0 Z " fill="#F39123" transform="translate(273,240)"/>
<path d="M0 0 C0 8.58 0 17.16 0 26 C-0.33 26 -0.66 26 -1 26 C-1.33 18.74 -1.66 11.48 -2 4 C-2.99 3.67 -3.98 3.34 -5 3 C-1.125 0 -1.125 0 0 0 Z " fill="#46074D" transform="translate(328,156)"/>
<path d="M0 0 C0 0.99 0 1.98 0 3 C-3.22791555 5.1519437 -4.28400809 5.20086443 -8 5 C-8.66 7.31 -9.32 9.62 -10 12 C-10.66 12 -11.32 12 -12 12 C-12 11.01 -12 10.02 -12 9 C-12.99 9.66 -13.98 10.32 -15 11 C-13.75027142 7.11195553 -11.39563957 5.81034447 -7.88671875 3.94921875 C-7.26410156 3.63597656 -6.64148438 3.32273437 -6 3 C-4.865625 2.4225 -3.73125 1.845 -2.5625 1.25 C-1.716875 0.8375 -0.87125 0.425 0 0 Z " fill="#A38931" transform="translate(310,102)"/>
<path d="M0 0 C1.32 0 2.64 0 4 0 C4 1.65 4 3.3 4 5 C3.34 5 2.68 5 2 5 C2 5.66 2 6.32 2 7 C0.35 7 -1.3 7 -3 7 C-3.66 5.35 -4.32 3.7 -5 2 C-4.34 1.67 -3.68 1.34 -3 1 C-3 1.99 -3 2.98 -3 4 C-2.01 4 -1.02 4 0 4 C0 2.68 0 1.36 0 0 Z " fill="#F6A929" transform="translate(284,261)"/>
<path d="M0 0 C2.68092691 2.68092691 2.38670257 4.39167363 2.625 8.125 C2.69976562 9.22070312 2.77453125 10.31640625 2.8515625 11.4453125 C2.92503906 12.70988281 2.92503906 12.70988281 3 14 C-0.28788824 10.88983545 -2.83735988 7.98381075 -5 4 C-3.68 4.33 -2.36 4.66 -1 5 C-0.67 3.35 -0.34 1.7 0 0 Z " fill="#2F0C3C" transform="translate(265,236)"/>
<path d="M0 0 C3.33686032 2.65967396 4.40824345 6.16029087 5.75 10.0625 C5.98332031 10.69994141 6.21664062 11.33738281 6.45703125 11.99414062 C7.03671139 13.64119588 7.52526514 15.31968846 8 17 C7.67 17.66 7.34 18.32 7 19 C4.70620251 15.55930376 4 14.27709699 4 10 C3.34 10 2.68 10 2 10 C0.68373308 6.38026598 0 3.90432869 0 0 Z " fill="#72045A" transform="translate(237,146)"/>
<path d="M0 0 C0.66 0.33 1.32 0.66 2 1 C1.67 2.32 1.34 3.64 1 5 C0.34 5 -0.32 5 -1 5 C-1.226875 5.53625 -1.45375 6.0725 -1.6875 6.625 C-3.43382056 9.78500863 -5.6402849 12.2676983 -8 15 C-8.33 14.34 -8.66 13.68 -9 13 C-6.90567018 8.04628837 -4.11583349 3.50608038 0 0 Z " fill="#C506CB" transform="translate(207,221)"/>
<path d="M0 0 C0.33 0.66 0.66 1.32 1 2 C1.66 2 2.32 2 3 2 C2.67 3.98 2.34 5.96 2 8 C1.29875 8.061875 0.5975 8.12375 -0.125 8.1875 C-4.0332733 9.29201202 -6.00357248 11.28230992 -9 14 C-7.31268143 10.29115966 -5.0622868 7.6722904 -2.33984375 4.68359375 C-0.78521084 2.92781556 -0.78521084 2.92781556 0 0 Z " fill="#F4B327" transform="translate(194,159)"/>
<path d="M0 0 C0.33 0.99 0.66 1.98 1 3 C-0.109375 5.19140625 -0.109375 5.19140625 -1.75 7.5625 C-2.28109375 8.34753906 -2.8121875 9.13257813 -3.359375 9.94140625 C-5 12 -5 12 -8 14 C-7.5206753 9.68607774 -6.2542015 7.83430453 -3 5 C-3.99 4.34 -4.98 3.68 -6 3 C-4.02 2.01 -2.04 1.02 0 0 Z " fill="#FBBB26" transform="translate(301,148)"/>
<path d="M0 0 C0.99 0.33 1.98 0.66 3 1 C3.33 2.65 3.66 4.3 4 6 C0.25 9 0.25 9 -2 9 C-2.125 5.625 -2.125 5.625 -2 2 C-1.34 1.34 -0.68 0.68 0 0 Z " fill="#6B017B" transform="translate(234,145)"/>
<path d="M0 0 C3.9252025 3.70090521 6.94580156 7.54959656 10 12 C9.67 12.66 9.34 13.32 9 14 C8.01 14 7.02 14 6 14 C5.34 12.02 4.68 10.04 4 8 C3.34 8 2.68 8 2 8 C1.34 5.36 0.68 2.72 0 0 Z " fill="#934319" transform="translate(275,193)"/>
<path d="M0 0 C0.33 0 0.66 0 1 0 C1 3.63 1 7.26 1 11 C1.66 11 2.32 11 3 11 C3 9.35 3 7.7 3 6 C3.99 6 4.98 6 6 6 C4.8102528 11.25471679 4.48942837 12.63292872 0 16 C0 10.72 0 5.44 0 0 Z " fill="#D23520" transform="translate(290,182)"/>
<path d="M0 0 C0.99 0.66 1.98 1.32 3 2 C-0.01189272 4.00792848 -2.58221068 4.88398716 -6 6 C-7.34721283 6.63815344 -8.68747118 7.29325371 -10 8 C-10.66 7.34 -11.32 6.68 -12 6 C-3.41052632 0.94736842 -3.41052632 0.94736842 0 0 Z " fill="#770162" transform="translate(321,167)"/>
<path d="M0 0 C7.42857143 -0.28571429 7.42857143 -0.28571429 11 2 C10.01 3.485 10.01 3.485 9 5 C9.66 5.33 10.32 5.66 11 6 C10.67 6.99 10.34 7.98 10 9 C9.278125 8.2575 8.55625 7.515 7.8125 6.75 C5.31407427 4.30709485 2.76356798 2.1318953 0 0 Z " fill="#9C127F" transform="translate(160,103)"/>
<path d="M0 0 C5.99295775 5.83098592 5.99295775 5.83098592 8 9 C8 9.99 8 10.98 8 12 C6.68 11.34 5.36 10.68 4 10 C4 9.34 4 8.68 4 8 C3.34 8 2.68 8 2 8 C0.23537317 4.91190305 0 3.76687864 0 0 Z " fill="#9F8235" transform="translate(315,250)"/>
<path d="M0 0 C1.32 0.33 2.64 0.66 4 1 C2.54234835 2.62561151 1.08385614 4.25046934 -0.375 5.875 C-1.18710937 6.77992188 -1.99921875 7.68484375 -2.8359375 8.6171875 C-4.19076205 10.10896183 -5.57505435 11.57505435 -7 13 C-7 11.68 -7 10.36 -7 9 C-6.34 9 -5.68 9 -5 9 C-5 8.01 -5 7.02 -5 6 C-4.34 5.67 -3.68 5.34 -3 5 C-1.9590934 3.35857037 -0.95495674 1.69287785 0 0 Z " fill="#D7411E" transform="translate(308,167)"/>
<path d="M0 0 C3.39417765 3.12621626 5.6062718 5.56541027 7 10 C5.02 10.99 5.02 10.99 3 12 C1.68095926 8.04287779 0.79584463 4.09291524 0 0 Z " fill="#AB8524" transform="translate(294,220)"/>
<path d="M0 0 C0.33 0.99 0.66 1.98 1 3 C0.38125 3.639375 -0.2375 4.27875 -0.875 4.9375 C-4.10051051 9.58602985 -3.82333305 14.46149107 -4 20 C-4.33 20 -4.66 20 -5 20 C-5.0809723 17.56183415 -5.14046972 15.12635616 -5.1875 12.6875 C-5.21263672 11.99720703 -5.23777344 11.30691406 -5.26367188 10.59570312 C-5.33777767 5.4824036 -5.33777767 5.4824036 -3.61328125 3.01953125 C-2 2 -2 2 0 2 C0 1.34 0 0.68 0 0 Z " fill="#E46E14" transform="translate(295,162)"/>
<path d="M0 0 C3.32451521 3.06205348 5.93731652 5.51311418 7 10 C6.01 11.485 6.01 11.485 5 13 C4.67 11.35 4.34 9.7 4 8 C3.01 8 2.02 8 1 8 C0.67 5.36 0.34 2.72 0 0 Z " fill="#A97E2D" transform="translate(308,240)"/>
<path d="M0 0 C-1.66215268 1.33895632 -3.32963607 2.67130142 -5 4 C-5.680625 4.556875 -6.36125 5.11375 -7.0625 5.6875 C-9.0647276 7.04384773 -10.63548688 7.57776551 -13 8 C-13.33 7.34 -13.66 6.68 -14 6 C-13.01 5.67 -12.02 5.34 -11 5 C-10.67 4.34 -10.34 3.68 -10 3 C-8.4765625 1.89453125 -8.4765625 1.89453125 -6.625 0.8125 C-6.01914063 0.44769531 -5.41328125 0.08289063 -4.7890625 -0.29296875 C-3 -1 -3 -1 0 0 Z " fill="#650193" transform="translate(209,211)"/>
<path d="M0 0 C2.475 0.99 2.475 0.99 5 2 C5.6875 5.3125 5.6875 5.3125 6 9 C5.01 9.99 4.02 10.98 3 12 C2.01 8.04 1.02 4.08 0 0 Z " fill="#E95007" transform="translate(264,183)"/>
<path d="M0 0 C0.99 0 1.98 0 3 0 C3.33 1.32 3.66 2.64 4 4 C5.65 4 7.3 4 9 4 C8.625 5.9375 8.625 5.9375 8 8 C7.01 8.495 7.01 8.495 6 9 C1.2 5.67692308 1.2 5.67692308 0.1875 2.25 C0.125625 1.5075 0.06375 0.765 0 0 Z " fill="#B80596" transform="translate(193,139)"/>
<path d="M0 0 C6.74776985 5.12689563 6.74776985 5.12689563 7.8125 8.8125 C7.874375 9.534375 7.93625 10.25625 8 11 C8.66 11.33 9.32 11.66 10 12 C9.01 12 8.02 12 7 12 C5.59123604 10.30860001 4.5271923 8.50481911 3.37890625 6.62890625 C1.70005429 4.6456732 0.52499557 4.38062566 -2 4 C-2 3.34 -2 2.68 -2 2 C-1.34 2 -0.68 2 0 2 C0 1.34 0 0.68 0 0 Z " fill="#5B0861" transform="translate(179,123)"/>
<path d="M0 0 C0.33 0 0.66 0 1 0 C1.05790353 3.29159316 1.09356261 6.58305603 1.125 9.875 C1.15013672 11.28072266 1.15013672 11.28072266 1.17578125 12.71484375 C1.18222656 13.61074219 1.18867188 14.50664062 1.1953125 15.4296875 C1.20578613 16.25710449 1.21625977 17.08452148 1.22705078 17.93701172 C1 20 1 20 -1 22 C-1.85998231 17.89119564 -1.8606884 15.06436187 -1 11 C-0.78847906 9.06497509 -0.60108624 7.12716545 -0.4375 5.1875 C-0.35371094 4.21167969 -0.26992187 3.23585937 -0.18359375 2.23046875 C-0.12300781 1.49441406 -0.06242188 0.75835937 0 0 Z " fill="#B00B99" transform="translate(210,240)"/>
<path d="M0 0 C2.3125 0.5625 2.3125 0.5625 5 2 C6.875 5.5 6.875 5.5 8 9 C7.67 9.66 7.34 10.32 7 11 C5.83051998 9.35616456 4.6644855 7.70987731 3.5 6.0625 C2.8503125 5.14597656 2.200625 4.22945312 1.53125 3.28515625 C0 1 0 1 0 0 Z " fill="#640B85" transform="translate(300,219)"/>
<path d="M0 0 C0.66 0.33 1.32 0.66 2 1 C1.25 2.9375 1.25 2.9375 0 5 C-1.33333333 5.33333333 -2.66666667 5.66666667 -4 6 C-5.1500831 7.96672915 -5.1500831 7.96672915 -6 10 C-6.99 10.495 -6.99 10.495 -8 11 C-7.690625 10.401875 -7.38125 9.80375 -7.0625 9.1875 C-5.89790296 6.91043228 -5.89790296 6.91043228 -5 4 C-4.34 4 -3.68 4 -3 4 C-2.67 3.01 -2.34 2.02 -2 1 C-1.34 0.67 -0.68 0.34 0 0 Z " fill="#ED600D" transform="translate(305,162)"/>
<path d="M0 0 C0.598125 0.33 1.19625 0.66 1.8125 1 C4.05386471 2.20787988 4.05386471 2.20787988 7 2 C6.67 3.98 6.34 5.96 6 8 C5.01 7.67 4.02 7.34 3 7 C1.3125 3.4375 1.3125 3.4375 0 0 Z " fill="#CB049D" transform="translate(185,128)"/>
<path d="M0 0 C1.65 0 3.3 0 5 0 C4.34 1.98 3.68 3.96 3 6 C3.99 6.33 4.98 6.66 6 7 C5.67 7.99 5.34 8.98 5 10 C4.34 10 3.68 10 3 10 C3 9.34 3 8.68 3 8 C2.34 8 1.68 8 1 8 C0.67 5.36 0.34 2.72 0 0 Z " fill="#E803A7" transform="translate(172,105)"/>
<path d="M0 0 C0.33 0.66 0.66 1.32 1 2 C-0.43359375 4.8203125 -0.43359375 4.8203125 -2.4375 8.125 C-3.09621094 9.22070312 -3.75492188 10.31640625 -4.43359375 11.4453125 C-4.95050781 12.28835937 -5.46742188 13.13140625 -6 14 C-6.93423645 10.98968256 -7.04449911 10.13349732 -6 7 C-5.01 7 -4.02 7 -3 7 C-3 5.68 -3 4.36 -3 3 C-2.34 3 -1.68 3 -1 3 C-0.67 2.01 -0.34 1.02 0 0 Z " fill="#CB4F2A" transform="translate(208,185)"/>
<path d="M0 0 C3.04105488 1.52052744 4.71466648 2.48121179 6.375 5.5 C7 8 7 8 6 11 C5.01 10.67 4.02 10.34 3 10 C2.814375 8.63875 2.814375 8.63875 2.625 7.25 C2.07890323 4.41029677 1.42736197 2.47409409 0 0 Z " fill="#C0912A" transform="translate(287,212)"/>
<path d="M0 0 C1.32 0.33 2.64 0.66 4 1 C4 1.66 4 2.32 4 3 C4.66 3 5.32 3 6 3 C6 4.32 6 5.64 6 7 C6.66 7 7.32 7 8 7 C7.67 8.32 7.34 9.64 7 11 C5.83051998 9.35616456 4.6644855 7.70987731 3.5 6.0625 C2.8503125 5.14597656 2.200625 4.22945313 1.53125 3.28515625 C0 1 0 1 0 0 Z " fill="#940D78" transform="translate(171,112)"/>
<path d="M0 0 C0.33 0.66 0.66 1.32 1 2 C0.67 2.66 0.34 3.32 0 4 C0.66 4.33 1.32 4.66 2 5 C2.73075648 7.3140622 3.40138258 9.64828869 4 12 C-1.13623978 7.04087193 -1.13623978 7.04087193 -3 4 C-2.67 3.01 -2.34 2.02 -2 1 C-1.34 0.67 -0.68 0.34 0 0 Z " fill="#5C0A91" transform="translate(311,228)"/>
<path d="M0 0 C0.66 0 1.32 0 2 0 C2.2475 0.804375 2.495 1.60875 2.75 2.4375 C3.1625 3.283125 3.575 4.12875 4 5 C6.02463255 5.65213292 6.02463255 5.65213292 8 6 C8.33 6.99 8.66 7.98 9 9 C9.66 9 10.32 9 11 9 C10.67 10.32 10.34 11.64 10 13 C10 12.01 10 11.02 10 10 C9.34 10 8.68 10 8 10 C8 9.34 8 8.68 8 8 C7.236875 7.79375 6.47375 7.5875 5.6875 7.375 C2.17770897 5.57929296 1.47400219 3.56863688 0 0 Z " fill="#530A79" transform="translate(218,179)"/>
<path d="M0 0 C0 0.99 0 1.98 0 3 C-1.62935241 4.37868281 -3.29749607 5.71274093 -5 7 C-5.33 7.66 -5.66 8.32 -6 9 C-6.66 9 -7.32 9 -8 9 C-8.33 9.66 -8.66 10.32 -9 11 C-8.67 9.35 -8.34 7.7 -8 6 C-7.01 5.67 -6.02 5.34 -5 5 C-5 4.34 -5 3.68 -5 3 C-2.46153846 0 -2.46153846 0 0 0 Z " fill="#F0A21D" transform="translate(184,174)"/>
<path d="M0 0 C2.5625 2.1875 2.5625 2.1875 5 5 C4.91985673 8.44616056 4.4443896 9.5556104 2 12 C1.34 8.04 0.68 4.08 0 0 Z " fill="#964A28" transform="translate(207,173)"/>
<path d="M0 0 C2.60608273 2.5162178 4.89381685 5.05134359 7 8 C6.67 8.66 6.34 9.32 6 10 C3.5 8.6875 3.5 8.6875 1 7 C1 6.01 1 5.02 1 4 C0.34 4 -0.32 4 -1 4 C-0.67 2.68 -0.34 1.36 0 0 Z " fill="#9F7A31" transform="translate(196,157)"/>
<path d="M0 0 C3 3.625 3 3.625 3 7 C3.66 7 4.32 7 5 7 C5.66 8.65 6.32 10.3 7 12 C3.83884224 10.63016497 3.0072908 10.0109362 1 7 C1 5.68 1 4.36 1 3 C0.34 3 -0.32 3 -1 3 C-0.67 2.01 -0.34 1.02 0 0 Z " fill="#CA0C96" transform="translate(178,116)"/>
<path d="M0 0 C0.66 1.32 1.32 2.64 2 4 C0.35 5.65 -1.3 7.3 -3 9 C-3.5534764 6.92446352 -4 5.15634036 -4 3 C-3.34 3 -2.68 3 -2 3 C-1.34 2.01 -0.68 1.02 0 0 Z " fill="#9B0B72" transform="translate(204,267)"/>
<path d="M0 0 C0.85276722 2.41707906 1.12087895 3.64003451 0.29296875 6.10546875 C-0.25423828 7.13607422 -0.25423828 7.13607422 -0.8125 8.1875 C-1.34810547 9.22970703 -1.34810547 9.22970703 -1.89453125 10.29296875 C-3 12 -3 12 -5 13 C-4.31740614 5.76450512 -4.31740614 5.76450512 -1 3 C-0.67 2.01 -0.34 1.02 0 0 Z " fill="#660962" transform="translate(211,257)"/>
<path d="M0 0 C0.99 0.66 1.98 1.32 3 2 C3 4 3 4 1.125 6.125 C-1 8 -1 8 -3 8 C-2.45276317 4.62537285 -1.9451 2.91765 0 0 Z " fill="#7E01A5" transform="translate(205,216)"/>
<path d="M0 0 C0.66 0 1.32 0 2 0 C2.33 3.63 2.66 7.26 3 11 C1.68 11 0.36 11 -1 11 C-0.835 10.29875 -0.67 9.5975 -0.5 8.875 C0.02415338 5.86111806 0.07099683 3.05286375 0 0 Z " fill="#35015B" transform="translate(258,206)"/>
<path d="M0 0 C1.125 3.75 1.125 3.75 0 6 C-0.66 6 -1.32 6 -2 6 C-2.33 7.32 -2.66 8.64 -3 10 C-3.66 10 -4.32 10 -5 10 C-4.38545304 6.00544473 -2.29353263 3.25533664 0 0 Z " fill="#5D0852" transform="translate(201,199)"/>
<path d="M0 0 C1.9375 0.3125 1.9375 0.3125 4 1 C4.33 1.99 4.66 2.98 5 4 C5.66 4.33 6.32 4.66 7 5 C7.625 8.0625 7.625 8.0625 8 11 C4.32966073 7.72291137 2.30718811 4.28477792 0 0 Z " fill="#4D0D6E" transform="translate(210,168)"/>
<path d="M0 0 C5.94 0 11.88 0 18 0 C17.01 0.99 16.02 1.98 15 3 C12.9375 2.75 12.9375 2.75 10 2 C8.23155755 1.7911502 6.46031175 1.60526608 4.6875 1.4375 C3.80449219 1.35371094 2.92148438 1.26992187 2.01171875 1.18359375 C1.34785156 1.12300781 0.68398437 1.06242187 0 1 C0 0.67 0 0.34 0 0 Z " fill="#CB0787" transform="translate(184,104)"/>
<path d="M0 0 C1.27208622 0.62244599 2.54261882 1.24806767 3.8125 1.875 C4.52019531 2.22304688 5.22789062 2.57109375 5.95703125 2.9296875 C8 4 8 4 11 6 C3.57142857 6.28571429 3.57142857 6.28571429 0 4 C0 2.68 0 1.36 0 0 Z " fill="#AC954B" transform="translate(332,274)"/>
<path d="M0 0 C1.9375 0.3125 1.9375 0.3125 4 1 C4.33 1.99 4.66 2.98 5 4 C5.66 4.33 6.32 4.66 7 5 C7.625 8.0625 7.625 8.0625 8 11 C4.32966073 7.72291137 2.30718811 4.28477792 0 0 Z " fill="#5B0C77" transform="translate(292,208)"/>
<path d="M0 0 C1.32 0.33 2.64 0.66 4 1 C3.42655063 3.86724686 3.1385485 4.8614515 1 7 C0.67 6.01 0.34 5.02 0 4 C-0.66 4 -1.32 4 -2 4 C-2 3.34 -2 2.68 -2 2 C-1.34 2 -0.68 2 0 2 C0 1.34 0 0.68 0 0 Z " fill="#77058E" transform="translate(220,175)"/>
<path d="M0 0 C1.32 0 2.64 0 4 0 C4 1.98 4 3.96 4 6 C2.68 5.34 1.36 4.68 0 4 C0 2.68 0 1.36 0 0 Z " fill="#790980" transform="translate(208,162)"/>
<path d="M0 0 C2.60608273 2.5162178 4.89381685 5.05134359 7 8 C6.67 8.66 6.34 9.32 6 10 C2.64888166 7.76592111 1.18446044 6.73784176 0.1875 2.75 C0.125625 1.8425 0.06375 0.935 0 0 Z " fill="#8D291D" transform="translate(250,157)"/>
<path d="M0 0 C0 2.31 0 4.62 0 7 C-1.32 7.33 -2.64 7.66 -4 8 C-4.36780384 3.46375267 -4.36780384 3.46375267 -2.5625 1.1875 C-1 0 -1 0 0 0 Z " fill="#F38916" transform="translate(325,144)"/>
<path d="M0 0 C0.33 0.66 0.66 1.32 1 2 C0.00390625 4.6015625 0.00390625 4.6015625 -1.4375 7.625 C-1.91058594 8.62789062 -2.38367188 9.63078125 -2.87109375 10.6640625 C-3.24363281 11.43492188 -3.61617188 12.20578125 -4 13 C-4.86443295 10.5653629 -5.12994709 9.36863937 -4.2578125 6.89453125 C-3.88398438 6.20746094 -3.51015625 5.52039063 -3.125 4.8125 C-2.57199219 3.77029297 -2.57199219 3.77029297 -2.0078125 2.70703125 C-1 1 -1 1 0 0 Z " fill="#826E33" transform="translate(294,113)"/>
<path d="M0 0 C0.99 0.33 1.98 0.66 3 1 C1.7260411 3.03833424 0.38938077 5.03852126 -1 7 C-1.66 7 -2.32 7 -3 7 C-3.33 7.66 -3.66 8.32 -4 9 C-4.33 7.68 -4.66 6.36 -5 5 C-4.34 5 -3.68 5 -3 5 C-3 4.34 -3 3.68 -3 3 C-2.01 3 -1.02 3 0 3 C0 2.01 0 1.02 0 0 Z " fill="#D14022" transform="translate(197,201)"/>
<path d="M0 0 C0 0.99 0 1.98 0 3 C-2.64 3 -5.28 3 -8 3 C-8 2.34 -8 1.68 -8 1 C-5.07175348 0.02391783 -3.04386724 -0.08226668 0 0 Z " fill="#F0C54A" transform="translate(302,276)"/>
<path d="M0 0 C1.32 0.66 2.64 1.32 4 2 C2.68 2.33 1.36 2.66 0 3 C0 3.66 0 4.32 0 5 C-1.65 5 -3.3 5 -5 5 C-3.35 3.35 -1.7 1.7 0 0 Z " fill="#6A028A" transform="translate(191,215)"/>
<path d="M0 0 C0.33 0.66 0.66 1.32 1 2 C1.66 2.33 2.32 2.66 3 3 C1 6 1 6 -1.125 6.6875 C-1.74375 6.790625 -2.3625 6.89375 -3 7 C-3 5.68 -3 4.36 -3 3 C-2.34 3 -1.68 3 -1 3 C-0.67 2.01 -0.34 1.02 0 0 Z " fill="#40017A" transform="translate(202,202)"/>
<path d="M0 0 C2.58949269 1.29474635 2.96035764 2.32663393 4 5 C4.125 7.75 4.125 7.75 4 10 C3.01 9.67 2.02 9.34 1 9 C0.67 6.03 0.34 3.06 0 0 Z " fill="#410165" transform="translate(250,182)"/>
<path d="M0 0 C0.66666667 2.66666667 1.33333333 5.33333333 2 8 C1.01 7.67 0.02 7.34 -1 7 C-1 6.01 -1 5.02 -1 4 C-1.99 3.67 -2.98 3.34 -4 3 C-3.67 2.34 -3.34 1.68 -3 1 C-2.01 1.33 -1.02 1.66 0 2 C0 1.34 0 0.68 0 0 Z " fill="#A20595" transform="translate(206,152)"/>
<path d="M0 0 C0 3.61029169 -0.96092582 6.55806676 -2 10 C-2.99 10 -3.98 10 -5 10 C-3.14285714 2.42857143 -3.14285714 2.42857143 0 0 Z " fill="#F3C43E" transform="translate(298,110)"/>
<path d="M0 0 C2.4375 0.75 2.4375 0.75 5 2 C5.6875 4.0625 5.6875 4.0625 6 6 C6.66 6.33 7.32 6.66 8 7 C6.25 6.875 6.25 6.875 4 6 C1.75 2.9375 1.75 2.9375 0 0 Z " fill="#20095F" transform="translate(244,217)"/>
<path d="M0 0 C3 1 3 1 4.25 3.375 C5 6 5 6 4 9 C3.34 8.67 2.68 8.34 2 8 C2 6.35 2 4.7 2 3 C1.34 3 0.68 3 0 3 C0 2.01 0 1.02 0 0 Z " fill="#BF501D" transform="translate(272,190)"/>
<path d="M0 0 C0 0.99 0 1.98 0 3 C-3.44450737 5.29633824 -5.93812283 5.54016485 -10 6 C-8.64695791 3.29391583 -7.19033456 3.03816953 -4.4375 1.875 C-3.61121094 1.52179688 -2.78492188 1.16859375 -1.93359375 0.8046875 C-1.29550781 0.53914063 -0.65742188 0.27359375 0 0 Z " fill="#9D893C" transform="translate(310,102)"/>
<path d="M0 0 C0.99 0 1.98 0 3 0 C3.99 1.98 4.98 3.96 6 6 C4.125 5.8125 4.125 5.8125 2 5 C0.75 2.4375 0.75 2.4375 0 0 Z " fill="#510B93" transform="translate(315,240)"/>
<path d="M0 0 C0.99 0 1.98 0 3 0 C3 0.99 3 1.98 3 3 C3.66 3 4.32 3 5 3 C5.33 4.65 5.66 6.3 6 8 C1.125 3.375 1.125 3.375 0 0 Z " fill="#7B0F7A" transform="translate(188,136)"/>
<path d="M0 0 C1.70884005 1.62339805 3.37446717 3.29319053 5 5 C5 5.66 5 6.32 5 7 C4.01 7.33 3.02 7.66 2 8 C0 2.25 0 2.25 0 0 Z " fill="#8E2D22" transform="translate(233,133)"/>
<path d="M0 0 C1 2 1 2 0.25 4.5625 C-1 7 -1 7 -4 8 C-2.87548273 5.0280615 -1.77706209 2.66559313 0 0 Z " fill="#A30A53" transform="translate(301,180)"/>
<path d="M0 0 C1.32 0.33 2.64 0.66 4 1 C2.35 2.65 0.7 4.3 -1 6 C-1.33 5.01 -1.66 4.02 -2 3 C-1.34 3 -0.68 3 0 3 C0 2.01 0 1.02 0 0 Z " fill="#DA4E23" transform="translate(319,156)"/>
<path d="M0 0 C0.99 0.33 1.98 0.66 3 1 C3 1.66 3 2.32 3 3 C3.66 3 4.32 3 5 3 C5.33 4.32 5.66 5.64 6 7 C3.00675737 5.9024777 2.15389099 5.32317108 0.75 2.375 C0.5025 1.59125 0.255 0.8075 0 0 Z " fill="#7C0D7E" transform="translate(194,144)"/>
<path d="M0 0 C2.64 0 5.28 0 8 0 C8.33 0.99 8.66 1.98 9 3 C4.545 2.01 4.545 2.01 0 1 C0 0.67 0 0.34 0 0 Z " fill="#DF0198" transform="translate(184,105)"/>
</svg>